<svg version="1.1" id="Layer_1" xmlns="http://www.w3.org/2000/svg" xmlns:xlink="http://www.w3.org/1999/xlink" x="0px" y="0px"
	 width="100%" viewBox="0 0 2300 2300" enable-background="new 0 0 2300 2300" xml:space="preserve">
<path fill="#000000" opacity="1.000000" stroke="none" 
	d="
M2302.000000,882.000000 
	C2302.000000,1356.000000 2302.000000,1829.000000 2302.000000,2302.000000 
	C1535.333374,2302.000000 768.666687,2302.000000 2.000000,2302.000000 
	C2.000000,1535.333374 2.000000,768.666687 2.000000,2.000000 
	C768.666687,2.000000 1535.333374,2.000000 2302.000000,2.000000 
	C2302.000000,295.000000 2302.000000,588.000000 2302.000000,882.000000 
M1843.988403,1522.791870 
	C1850.627686,1496.013672 1858.356934,1469.447632 1863.620361,1442.401733 
	C1869.711304,1411.103394 1874.167969,1379.453613 1878.354492,1347.826904 
	C1883.109619,1311.902710 1886.321045,1275.797607 1886.246094,1239.495728 
	C1886.209595,1221.839355 1885.849487,1204.183960 1885.739990,1186.527344 
	C1885.230225,1104.262451 1884.767212,1021.997070 1884.263916,939.731995 
	C1884.127319,917.408997 1883.929199,895.086426 1883.724243,872.763977 
	C1883.250366,821.152832 1882.632812,769.542664 1882.302490,717.930603 
	C1881.967773,665.611084 1881.850586,613.289856 1881.746704,560.969116 
	C1881.665894,520.303955 1881.837769,479.638184 1881.676758,438.973511 
	C1881.650879,432.435181 1880.471436,425.901367 1879.822021,419.333740 
	C1877.745972,418.890717 1876.487549,418.463074 1875.205078,418.372284 
	C1855.646606,416.987579 1836.047974,416.038330 1816.532959,414.200348 
	C1790.069092,411.707916 1763.585693,409.145966 1737.259399,405.531586 
	C1692.097290,399.331268 1647.304565,390.887268 1603.002197,380.109436 
	C1539.237183,364.596771 1476.739990,345.118958 1416.037109,319.970551 
	C1381.270508,305.567230 1347.123535,289.983917 1313.942749,272.187500 
	C1259.206665,242.829926 1207.216431,209.459427 1159.808716,169.170166 
	C1157.115234,166.881165 1153.858276,165.255157 1150.541260,163.112289 
	C1146.669556,166.152298 1143.245850,168.739746 1139.930786,171.459305 
	C1110.547729,195.563354 1079.850220,217.899734 1047.549316,237.879395 
	C1012.743408,259.408478 976.856750,278.970154 939.747925,296.419800 
	C888.763123,320.394379 836.271423,340.326630 782.612061,357.157898 
	C726.688477,374.699341 669.689941,388.045197 611.915771,398.033539 
	C551.249329,408.521973 490.202698,415.500183 428.689850,418.315582 
	C426.769287,418.403473 424.864014,418.825989 421.732422,419.262482 
	C421.732422,423.852539 421.732422,428.083160 421.732391,432.313812 
	C421.732117,708.304932 421.682068,984.296021 421.844513,1260.286987 
	C421.855255,1278.559692 422.819855,1296.893555 424.518097,1315.088867 
	C427.048798,1342.203247 430.453247,1369.241455 433.802734,1396.272827 
	C438.925476,1437.615479 447.979980,1478.198120 459.301697,1518.216553 
	C476.007843,1577.267090 497.820251,1634.326782 526.930115,1688.547241 
	C542.708923,1717.937134 560.077698,1746.275635 579.067200,1773.632690 
	C597.677979,1800.443970 618.552734,1825.446167 640.179443,1849.903076 
	C662.699524,1875.370239 687.089600,1898.874268 712.719666,1921.042236 
	C745.723938,1949.588257 780.733643,1975.556152 817.604858,1998.990479 
	C863.199768,2027.969482 910.395325,2053.988525 960.107300,2075.159180 
	C991.016052,2088.322021 1022.149841,2101.099365 1053.769653,2112.408203 
	C1084.131226,2123.267090 1115.250854,2132.005615 1146.034302,2141.686523 
	C1151.240845,2143.323975 1156.316284,2143.259766 1161.642334,2141.731689 
	C1206.134521,2128.963623 1250.053345,2114.521484 1293.126465,2097.529541 
	C1328.133911,2083.719482 1362.599243,2068.687500 1395.905273,2051.159180 
	C1417.978516,2039.542480 1440.065918,2027.852417 1461.408325,2014.971191 
	C1492.184204,1996.396362 1522.292969,1976.626099 1550.117798,1953.807739 
	C1576.057983,1932.534790 1601.326904,1910.416138 1626.345459,1888.058716 
	C1637.226318,1878.335327 1646.881836,1867.213745 1656.834595,1856.486450 
	C1665.427246,1847.225342 1673.960938,1837.877197 1681.981445,1828.123779 
	C1705.461670,1799.570557 1727.460693,1769.938110 1747.155640,1738.593384 
	C1769.871826,1702.439941 1789.522461,1664.727295 1806.676636,1625.651855 
	C1821.157471,1592.665649 1832.553467,1558.581543 1843.988403,1522.791870 
z"/>
<path fill="#98092D" opacity="1.000000" stroke="none" 
	d="
M1843.769287,1523.566162 
	C1832.553467,1558.581543 1821.157471,1592.665649 1806.676636,1625.651855 
	C1789.522461,1664.727295 1769.871826,1702.439941 1747.155640,1738.593384 
	C1727.460693,1769.938110 1705.461670,1799.570557 1681.981445,1828.123779 
	C1673.960938,1837.877197 1665.427246,1847.225342 1656.834595,1856.486450 
	C1646.881836,1867.213745 1637.226318,1878.335327 1626.345459,1888.058716 
	C1601.326904,1910.416138 1576.057983,1932.534790 1550.117798,1953.807739 
	C1522.292969,1976.626099 1492.184204,1996.396362 1461.408325,2014.971191 
	C1440.065918,2027.852417 1417.978516,2039.542480 1395.905273,2051.159180 
	C1362.599243,2068.687500 1328.133911,2083.719482 1293.126465,2097.529541 
	C1250.053345,2114.521484 1206.134521,2128.963623 1161.642334,2141.731689 
	C1156.316284,2143.259766 1151.240845,2143.323975 1146.034302,2141.686523 
	C1115.250854,2132.005615 1084.131226,2123.267090 1053.769653,2112.408203 
	C1022.149841,2101.099365 991.016052,2088.322021 960.107300,2075.159180 
	C910.395325,2053.988525 863.199768,2027.969482 817.604858,1998.990479 
	C780.733643,1975.556152 745.723938,1949.588257 712.719666,1921.042236 
	C687.089600,1898.874268 662.699524,1875.370239 640.179443,1849.903076 
	C618.552734,1825.446167 597.677979,1800.443970 579.067200,1773.632690 
	C560.077698,1746.275635 542.708923,1717.937134 526.930115,1688.547241 
	C497.820251,1634.326782 476.007843,1577.267090 459.301697,1518.216553 
	C447.979980,1478.198120 438.925476,1437.615479 433.802734,1396.272827 
	C430.453247,1369.241455 427.048798,1342.203247 424.518097,1315.088867 
	C422.819855,1296.893555 421.855255,1278.559692 421.844513,1260.286987 
	C421.682068,984.296021 421.732117,708.304932 421.732391,432.313812 
	C421.732422,428.083160 421.732422,423.852539 421.732422,419.262482 
	C424.864014,418.825989 426.769287,418.403473 428.689850,418.315582 
	C490.202698,415.500183 551.249329,408.521973 611.915771,398.033539 
	C669.689941,388.045197 726.688477,374.699341 782.612061,357.157898 
	C836.271423,340.326630 888.763123,320.394379 939.747925,296.419800 
	C976.856750,278.970154 1012.743408,259.408478 1047.549316,237.879395 
	C1079.850220,217.899734 1110.547729,195.563354 1139.930786,171.459305 
	C1143.245850,168.739746 1146.669556,166.152298 1150.541260,163.112289 
	C1153.858276,165.255157 1157.115234,166.881165 1159.808716,169.170166 
	C1207.216431,209.459427 1259.206665,242.829926 1313.942749,272.187500 
	C1347.123535,289.983917 1381.270508,305.567230 1416.037109,319.970551 
	C1476.739990,345.118958 1539.237183,364.596771 1603.002197,380.109436 
	C1647.304565,390.887268 1692.097290,399.331268 1737.259399,405.531586 
	C1763.585693,409.145966 1790.069092,411.707916 1816.532959,414.200348 
	C1836.047974,416.038330 1855.646606,416.987579 1875.205078,418.372284 
	C1876.487549,418.463074 1877.745972,418.890717 1879.822021,419.333740 
	C1880.471436,425.901367 1881.650879,432.435181 1881.676758,438.973511 
	C1881.837769,479.638184 1881.665894,520.303955 1881.746704,560.969116 
	C1881.850586,613.289856 1881.967773,665.611084 1882.302490,717.930603 
	C1882.632812,769.542664 1883.250366,821.152832 1883.724243,872.763977 
	C1883.929199,895.086426 1884.127319,917.408997 1884.263916,939.731995 
	C1884.767212,1021.997070 1885.230225,1104.262451 1885.739990,1186.527344 
	C1885.849487,1204.183960 1886.209595,1221.839355 1886.246094,1239.495728 
	C1886.321045,1275.797607 1883.109619,1311.902710 1878.354492,1347.826904 
	C1874.167969,1379.453613 1869.711304,1411.103394 1863.620361,1442.401733 
	C1858.356934,1469.447632 1850.627686,1496.013672 1843.769287,1523.566162 
M1847.620239,867.000977 
	C1846.620728,729.418396 1845.621338,591.835754 1844.619507,453.903320 
	C1840.799927,453.350891 1837.892090,452.732544 1834.955811,452.535309 
	C1793.054443,449.720795 1751.415039,444.698883 1709.917236,438.284119 
	C1630.453735,426.000580 1552.523682,407.396362 1476.346680,381.667816 
	C1378.371582,348.576965 1285.558594,304.854919 1200.247681,245.984268 
	C1183.547607,234.460083 1167.362183,222.190369 1150.732666,210.114456 
	C1149.179443,211.226089 1147.517212,212.322205 1145.955811,213.546692 
	C1095.447998,253.154541 1041.245850,286.948730 983.908264,315.666870 
	C822.658081,396.430786 650.933533,438.086426 471.890259,452.232574 
	C467.351288,452.591187 462.832458,453.205017 457.823425,453.752319 
	C457.823425,458.573212 457.823395,462.546356 457.823395,466.519501 
	C457.823395,707.814392 457.758270,949.109314 457.904724,1190.404175 
	C457.923309,1221.035278 458.625244,1251.681274 459.746643,1282.293457 
	C462.450836,1356.113647 473.042114,1428.828857 492.248627,1500.184937 
	C520.102356,1603.666992 565.582825,1698.516846 631.795715,1783.120483 
	C699.270508,1869.336670 782.123169,1937.516357 876.636902,1992.028931 
	C957.528625,2038.685059 1043.599487,2072.977051 1132.770386,2100.105957 
	C1147.089600,2104.462402 1159.920166,2104.530762 1174.254028,2100.159180 
	C1277.002563,2068.823730 1375.170776,2027.462280 1465.597412,1968.919556 
	C1658.895752,1843.777100 1778.015503,1667.713257 1826.288818,1443.039185 
	C1835.326294,1400.976562 1841.520996,1358.499390 1845.422852,1315.698730 
	C1847.477417,1293.162354 1849.704834,1270.521606 1849.651001,1247.933228 
	C1849.349976,1121.621704 1848.376221,995.311584 1847.620239,867.000977 
z"/>
<path fill="#FCF9FA" opacity="1.000000" stroke="none" 
	d="
M1847.626343,868.000977 
	C1848.376221,995.311584 1849.349976,1121.621704 1849.651001,1247.933228 
	C1849.704834,1270.521606 1847.477417,1293.162354 1845.422852,1315.698730 
	C1841.520996,1358.499390 1835.326294,1400.976562 1826.288818,1443.039185 
	C1778.015503,1667.713257 1658.895752,1843.777100 1465.597412,1968.919556 
	C1375.170776,2027.462280 1277.002563,2068.823730 1174.254028,2100.159180 
	C1159.920166,2104.530762 1147.089600,2104.462402 1132.770386,2100.105957 
	C1043.599487,2072.977051 957.528625,2038.685059 876.636902,1992.028931 
	C782.123169,1937.516357 699.270508,1869.336670 631.795715,1783.120483 
	C565.582825,1698.516846 520.102356,1603.666992 492.248627,1500.184937 
	C473.042114,1428.828857 462.450836,1356.113647 459.746643,1282.293457 
	C458.625244,1251.681274 457.923309,1221.035278 457.904724,1190.404175 
	C457.758270,949.109314 457.823395,707.814392 457.823395,466.519501 
	C457.823395,462.546356 457.823425,458.573212 457.823425,453.752319 
	C462.832458,453.205017 467.351288,452.591187 471.890259,452.232574 
	C650.933533,438.086426 822.658081,396.430786 983.908264,315.666870 
	C1041.245850,286.948730 1095.447998,253.154541 1145.955811,213.546692 
	C1147.517212,212.322205 1149.179443,211.226089 1150.732666,210.114456 
	C1167.362183,222.190369 1183.547607,234.460083 1200.247681,245.984268 
	C1285.558594,304.854919 1378.371582,348.576965 1476.346680,381.667816 
	C1552.523682,407.396362 1630.453735,426.000580 1709.917236,438.284119 
	C1751.415039,444.698883 1793.054443,449.720795 1834.955811,452.535309 
	C1837.892090,452.732544 1840.799927,453.350891 1844.619507,453.903320 
	C1845.621338,591.835754 1846.620728,729.418396 1847.626343,868.000977 
M1455.643799,1946.760620 
	C1458.971558,1944.548584 1462.307495,1942.348755 1465.626099,1940.123169 
	C1628.611328,1830.815552 1736.499390,1681.604492 1789.449463,1492.687866 
	C1804.128662,1440.315430 1813.972656,1386.961182 1819.498901,1332.886230 
	C1822.408447,1304.415649 1825.341919,1275.794678 1825.503296,1247.226074 
	C1825.919189,1173.574219 1824.778564,1099.913940 1824.293701,1026.256836 
	C1823.113159,846.946655 1821.951294,667.636353 1820.786133,488.326111 
	C1820.760620,484.402374 1820.783081,480.478271 1820.783081,476.226868 
	C1816.209961,475.565338 1812.650513,474.979523 1809.072754,474.543915 
	C1775.360596,470.439331 1741.549194,467.022614 1707.950928,462.138275 
	C1634.348999,451.438446 1562.145752,434.395996 1491.273193,411.856934 
	C1390.830566,379.914001 1295.359863,337.182373 1206.939819,279.438477 
	C1187.988037,267.061737 1169.641602,253.757843 1150.617554,240.605392 
	C1148.192749,242.342422 1145.547241,244.319214 1142.821045,246.177673 
	C1121.081421,260.996490 1099.772461,276.503571 1077.498657,290.471802 
	C986.044067,347.824402 887.525696,389.398926 784.214355,419.942871 
	C696.491638,445.878082 607.053894,463.184601 516.033936,472.320831 
	C504.859894,473.442383 493.696991,474.674713 481.873932,475.925018 
	C481.873932,480.620392 481.873962,484.567963 481.873962,488.515564 
	C481.873962,724.157776 481.813843,959.800110 481.952698,1195.442261 
	C481.969391,1223.743286 482.724182,1252.055908 483.729767,1280.342163 
	C486.032135,1345.106201 494.697266,1409.039917 509.934082,1472.048950 
	C555.420105,1660.148438 656.459839,1810.882690 814.080872,1923.358521 
	C915.822571,1995.959717 1028.891357,2044.486084 1148.327148,2079.205322 
	C1151.902344,2080.244629 1156.345703,2079.965576 1159.975952,2078.904541 
	C1264.075073,2048.473633 1363.123535,2006.667603 1455.643799,1946.760620 
z"/>
<path fill="#98082C" opacity="1.000000" stroke="none" 
	d="
M1455.047607,1947.169067 
	C1363.123535,2006.667603 1264.075073,2048.473633 1159.975952,2078.904541 
	C1156.345703,2079.965576 1151.902344,2080.244629 1148.327148,2079.205322 
	C1028.891357,2044.486084 915.822571,1995.959717 814.080872,1923.358521 
	C656.459839,1810.882690 555.420105,1660.148438 509.934082,1472.048950 
	C494.697266,1409.039917 486.032135,1345.106201 483.729767,1280.342163 
	C482.724182,1252.055908 481.969391,1223.743286 481.952698,1195.442261 
	C481.813843,959.800110 481.873962,724.157776 481.873962,488.515564 
	C481.873962,484.567963 481.873932,480.620392 481.873932,475.925018 
	C493.696991,474.674713 504.859894,473.442383 516.033936,472.320831 
	C607.053894,463.184601 696.491638,445.878082 784.214355,419.942871 
	C887.525696,389.398926 986.044067,347.824402 1077.498657,290.471802 
	C1099.772461,276.503571 1121.081421,260.996490 1142.821045,246.177673 
	C1145.547241,244.319214 1148.192749,242.342422 1150.617554,240.605392 
	C1169.641602,253.757843 1187.988037,267.061737 1206.939819,279.438477 
	C1295.359863,337.182373 1390.830566,379.914001 1491.273193,411.856934 
	C1562.145752,434.395996 1634.348999,451.438446 1707.950928,462.138275 
	C1741.549194,467.022614 1775.360596,470.439331 1809.072754,474.543915 
	C1812.650513,474.979523 1816.209961,475.565338 1820.783081,476.226868 
	C1820.783081,480.478271 1820.760620,484.402374 1820.786133,488.326111 
	C1821.951294,667.636353 1823.113159,846.946655 1824.293701,1026.256836 
	C1824.778564,1099.913940 1825.919189,1173.574219 1825.503296,1247.226074 
	C1825.341919,1275.794678 1822.408447,1304.415649 1819.498901,1332.886230 
	C1813.972656,1386.961182 1804.128662,1440.315430 1789.449463,1492.687866 
	C1736.499390,1681.604492 1628.611328,1830.815552 1465.626099,1940.123169 
	C1462.307495,1942.348755 1458.971558,1944.548584 1455.047607,1947.169067 
M1531.488281,1373.543945 
	C1531.488281,1373.543945 1530.731079,1372.939819 1531.049072,1371.430176 
	C1540.968262,1341.824341 1536.331299,1314.860352 1517.083130,1289.784424 
	C1515.184082,1291.247681 1514.080078,1291.971313 1513.123047,1292.854370 
	C1482.817017,1320.818237 1478.633423,1367.979614 1503.101318,1401.891479 
	C1507.244263,1407.633545 1512.103149,1410.798706 1518.920410,1412.507202 
	C1555.061646,1421.565063 1593.697388,1404.749756 1611.370239,1371.808228 
	C1612.543701,1369.620850 1613.214844,1367.164185 1614.219971,1364.573975 
	C1599.428833,1358.084229 1584.781006,1356.685181 1569.660645,1358.818848 
	C1555.861206,1360.766235 1543.912476,1367.199463 1531.488281,1373.543945 
M769.150696,1375.027710 
	C757.566162,1366.879395 745.048035,1360.773315 730.911621,1358.809082 
	C715.632690,1356.686279 700.715515,1357.776978 686.620056,1364.901123 
	C702.714844,1404.264160 749.365723,1425.065063 788.015320,1410.623169 
	C790.092346,1409.846924 792.452637,1408.788452 793.753540,1407.132446 
	C811.454712,1384.599976 818.402771,1359.538452 810.815002,1331.310791 
	C806.398987,1314.882812 797.931824,1301.041016 784.005981,1289.871338 
	C769.597229,1307.386841 763.461731,1326.908081 765.122437,1348.664185 
	C765.772949,1357.186157 768.317505,1365.563477 770.131653,1373.932739 
	C770.131653,1373.932739 770.273315,1373.879028 769.150696,1375.027710 
M729.637756,1305.890137 
	C731.834106,1304.172607 734.495605,1302.815552 736.151367,1300.679199 
	C747.100891,1286.550293 752.650757,1270.358276 752.895508,1252.565186 
	C753.226990,1228.462158 744.784973,1207.902954 726.997070,1190.891479 
	C719.268066,1197.441406 714.400635,1205.452881 711.289307,1214.155151 
	C708.186279,1222.834351 705.639832,1231.974609 704.728516,1241.100342 
	C703.849426,1249.903442 705.369995,1258.945923 705.869751,1268.523682 
	C676.028625,1246.518921 650.001282,1239.125732 632.260803,1247.223389 
	C638.200989,1276.281006 657.395752,1298.906494 684.648499,1308.958252 
	C696.378784,1313.284790 708.463440,1314.777344 720.921814,1313.696411 
	C725.232117,1313.322510 727.825867,1311.894653 727.498779,1306.437744 
	C727.498779,1306.437744 728.204407,1305.783325 729.637756,1305.890137 
M1157.415771,1255.936279 
	C1151.696533,1254.919556 1145.977295,1253.902832 1139.271240,1252.710571 
	C1161.092407,1209.596436 1182.350708,1167.594604 1204.275269,1124.276123 
	C1206.819336,1129.062012 1208.547729,1132.179565 1210.155762,1135.357910 
	C1258.556152,1231.018188 1307.014893,1326.649292 1355.180786,1422.427612 
	C1358.487915,1429.004028 1362.212402,1431.369873 1369.562988,1431.264282 
	C1399.552490,1430.833740 1429.552002,1431.084839 1459.547729,1431.084839 
	C1462.768066,1431.084839 1465.988525,1431.084839 1470.833618,1431.084839 
	C1436.126587,1362.649414 1402.218872,1295.789795 1368.307129,1228.922607 
	C1375.125122,1223.525879 1381.270630,1218.965698 1387.082642,1214.014038 
	C1446.473999,1163.415527 1463.199951,1097.762817 1438.083008,1022.715759 
	C1425.863403,986.205017 1399.508423,961.093811 1366.969971,941.980652 
	C1345.588379,929.420959 1322.598267,920.718079 1298.819946,913.941284 
	C1296.911133,913.397339 1295.160400,912.298706 1292.482056,911.064270 
	C1296.670288,909.095642 1299.671265,907.692200 1302.666260,906.276062 
	C1324.757690,895.830627 1345.595215,883.430542 1363.668335,866.793945 
	C1379.627441,852.103638 1392.197388,835.142578 1398.123047,813.922302 
	C1411.891113,764.616089 1391.019775,707.978638 1348.046143,678.270569 
	C1326.683960,663.502625 1302.872803,654.242615 1277.839844,647.908691 
	C1241.081665,638.608093 1203.622803,636.055542 1165.854492,636.021851 
	C1067.828247,635.934448 969.980103,640.804199 872.153870,646.303833 
	C860.945068,646.933960 849.778320,648.314636 838.658203,649.341248 
	C838.658203,656.206116 838.658203,662.049683 838.658203,667.945251 
	C841.114990,668.566040 843.017456,669.229065 844.974854,669.512573 
	C860.464233,671.755188 875.986694,673.779968 891.450012,676.186951 
	C898.004761,677.207397 904.582703,678.537476 910.896423,680.530518 
	C918.586731,682.957947 922.970032,688.569275 923.386780,696.843079 
	C923.587891,700.834717 923.686462,704.835876 923.686829,708.832703 
	C923.701172,869.476624 923.714478,1030.120483 923.644653,1190.764404 
	C923.641724,1197.406006 923.141418,1204.083374 922.355774,1210.682373 
	C919.796814,1232.173828 912.527100,1240.310059 891.842529,1246.208008 
	C877.824158,1250.205078 863.931458,1254.643188 850.070251,1258.857300 
	C850.070251,1265.338989 850.070251,1271.085571 850.070251,1277.491333 
	C853.835388,1277.491333 856.788208,1277.485352 859.740967,1277.492188 
	C965.725525,1277.735107 1071.710083,1277.990479 1177.694702,1278.208252 
	C1190.690918,1278.234863 1203.710449,1278.506348 1216.677368,1277.845825 
	C1228.109497,1277.263550 1239.483398,1275.536255 1252.229980,1274.170288 
	C1248.787964,1267.659424 1246.219849,1262.801636 1243.706421,1258.047363 
	C1214.801270,1262.231812 1186.976929,1259.488403 1157.415771,1255.936279 
M679.895935,783.135254 
	C695.679199,777.589172 709.858704,769.027039 723.812561,758.984802 
	C726.641357,762.000916 729.165283,764.563416 731.547729,767.251282 
	C770.656738,811.374023 809.744873,855.515137 848.850769,899.640625 
	C851.058167,902.131226 853.156616,904.789490 855.698181,906.896240 
	C859.497864,910.045715 864.157837,909.862366 867.587952,906.947510 
	C870.837769,904.185852 871.712463,899.264893 869.300354,895.105713 
	C867.978760,892.826965 866.068298,890.881958 864.369812,888.830872 
	C826.342712,842.909424 788.304626,796.997131 750.283386,751.070923 
	C747.801086,748.072571 745.437378,744.976196 742.912109,741.791199 
	C754.552429,728.971130 764.320801,715.959595 771.087952,700.935486 
	C777.038147,687.725403 781.034485,674.020325 779.857788,659.368103 
	C779.173340,650.845764 777.706909,642.383850 771.062195,635.347107 
	C715.390137,682.070496 660.109192,728.465576 604.454041,775.174744 
	C611.277283,782.864868 619.525635,786.033997 628.333130,788.107971 
	C645.502808,792.151062 662.044922,788.841736 679.895935,783.135254 
M1461.470947,868.453369 
	C1454.470703,876.921753 1447.297119,885.254822 1440.540161,893.913208 
	C1436.936157,898.531494 1437.433716,903.067749 1440.980225,906.497559 
	C1444.837036,910.227539 1449.733765,910.128113 1454.331055,905.990173 
	C1456.300171,904.217834 1457.956665,902.093872 1459.723022,900.101196 
	C1499.256592,855.498779 1538.781616,810.888794 1578.326416,766.296326 
	C1580.471313,763.877441 1582.771606,761.596313 1585.158203,759.083984 
	C1588.448608,761.326477 1591.168091,763.200806 1593.908447,765.044006 
	C1608.655029,774.962769 1624.406982,782.669617 1641.771606,786.854248 
	C1657.255127,790.585632 1672.714478,791.580811 1687.970215,785.973877 
	C1694.098022,783.721741 1700.165405,781.108459 1704.036377,775.333191 
	C1681.390625,753.705322 1543.826294,639.525391 1536.322754,636.212158 
	C1527.848022,650.200317 1527.520508,665.234558 1530.958618,680.559326 
	C1535.662354,701.526062 1546.634888,719.248108 1560.425537,735.401245 
	C1562.302368,737.599670 1564.064697,739.895813 1565.991211,742.284424 
	C1531.168457,784.302551 1496.759766,825.820984 1461.470947,868.453369 
M1110.386719,1318.334106 
	C1105.449463,1308.463013 1100.512207,1298.591797 1094.844482,1287.260254 
	C1070.547363,1335.848511 1047.128174,1382.680908 1023.560120,1429.811035 
	C1036.020508,1431.947144 1158.421753,1431.530762 1165.967896,1429.371948 
	C1147.648438,1392.735718 1129.374756,1356.191162 1110.386719,1318.334106 
M702.988770,1500.302856 
	C685.694031,1500.459961 668.399231,1500.614868 651.104858,1500.804321 
	C650.922913,1500.806274 650.716187,1501.248657 650.574585,1501.514038 
	C650.418884,1501.805664 650.325378,1502.130371 649.701965,1503.734375 
	C658.125977,1504.688110 656.072449,1511.171265 656.085815,1516.624390 
	C656.154175,1544.589355 656.138794,1572.554688 656.103394,1600.519897 
	C656.094299,1607.707397 658.168518,1615.518066 648.984009,1620.408569 
	C651.358765,1621.177979 652.220215,1621.700195 653.082336,1621.701172 
	C681.712341,1621.734985 710.345459,1621.951172 738.970947,1621.584595 
	C749.014526,1621.455933 758.770630,1618.952759 767.241272,1613.012817 
	C784.838379,1600.672852 784.307861,1575.941650 766.165833,1564.501099 
	C762.969482,1562.485474 759.503235,1560.897949 755.462036,1558.739136 
	C758.512695,1556.995605 760.724731,1555.553589 763.082397,1554.412231 
	C781.933960,1545.285645 780.380676,1519.309082 764.050354,1510.489380 
	C756.610107,1506.471069 748.141357,1503.471680 739.806213,1502.210571 
	C728.364014,1500.479736 716.605530,1500.839233 702.988770,1500.302856 
M1558.091187,1290.735474 
	C1562.875854,1296.293823 1563.819946,1305.863403 1573.921997,1305.896118 
	C1574.141357,1308.068970 1574.362183,1310.258057 1574.564697,1312.264893 
	C1624.167114,1322.623047 1666.647217,1279.891602 1667.793579,1245.468140 
	C1639.397461,1240.829346 1615.567871,1250.375000 1593.669312,1270.301880 
	C1599.843262,1239.554199 1595.117065,1213.438965 1574.545898,1191.122437 
	C1552.018921,1209.104126 1537.170044,1250.984253 1558.091187,1290.735474 
M1214.495239,1505.867920 
	C1215.231812,1504.354492 1215.968506,1502.841064 1216.846802,1501.036621 
	C1198.246704,1499.158691 1183.933472,1499.775024 1178.307373,1502.561279 
	C1183.661865,1509.773926 1183.595581,1509.741943 1179.532104,1518.178955 
	C1172.752563,1532.255127 1166.344604,1546.517334 1159.276733,1560.445801 
	C1149.146240,1580.410034 1141.771118,1601.788452 1128.713257,1620.253906 
	C1136.414795,1622.380127 1152.327881,1622.443848 1160.366699,1620.380615 
	C1156.462891,1613.593140 1156.409912,1613.567261 1159.925049,1606.372925 
	C1162.239380,1601.636719 1164.733398,1596.988403 1167.201904,1592.194092 
	C1186.146851,1592.194092 1204.717529,1592.194092 1223.955688,1592.194092 
	C1226.122803,1601.806396 1237.870239,1608.684448 1230.838623,1620.625732 
	C1242.130249,1622.763550 1264.461670,1622.308228 1270.925903,1619.668945 
	C1267.976807,1616.160645 1264.354370,1613.125610 1262.340332,1609.253784 
	C1246.231201,1578.284912 1230.357788,1547.192261 1214.652100,1516.016846 
	C1213.322876,1513.378540 1213.738647,1509.860962 1214.495239,1505.867920 
M1312.823853,1621.825439 
	C1316.987183,1621.825439 1321.150513,1621.825439 1325.408325,1621.825439 
	C1318.738281,1608.120117 1322.709961,1595.030151 1321.583252,1581.314575 
	C1331.530518,1581.314575 1340.440308,1581.413940 1349.345825,1581.265259 
	C1352.872070,1581.206543 1354.720337,1583.077393 1356.456665,1585.750610 
	C1360.989136,1592.728516 1365.576904,1599.676880 1370.369995,1606.476807 
	C1373.519531,1610.945190 1376.588745,1615.215210 1371.785889,1620.582397 
	C1384.878296,1622.879028 1401.647827,1622.304321 1407.338623,1619.458862 
	C1393.746460,1608.668823 1386.731934,1593.119751 1376.748047,1579.546753 
	C1381.654053,1577.057739 1386.019897,1575.372070 1389.801636,1572.820679 
	C1399.545288,1566.246948 1403.454712,1556.866333 1401.955200,1545.204712 
	C1400.519165,1534.036743 1394.127808,1526.821899 1383.534424,1524.036255 
	C1375.883911,1522.024658 1367.884155,1520.582153 1360.000122,1520.368896 
	C1340.697876,1519.847412 1321.372070,1520.158325 1302.056152,1520.215088 
	C1299.925659,1520.221313 1297.796753,1520.751709 1296.666504,1520.904175 
	C1297.655273,1526.981812 1299.171143,1532.236206 1299.250610,1537.512207 
	C1299.546753,1557.156982 1299.452515,1576.809448 1299.333862,1596.458008 
	C1299.283936,1604.731079 1301.106567,1613.293945 1294.535522,1621.825439 
	C1301.149536,1621.825439 1306.076660,1621.825439 1312.823853,1621.825439 
M1491.006592,1604.412598 
	C1481.773682,1604.412598 1472.540894,1604.412598 1463.051514,1604.412598 
	C1463.051514,1594.970947 1463.051514,1586.567505 1463.051514,1577.542480 
	C1478.758057,1578.910767 1493.967529,1574.974854 1509.137207,1580.678345 
	C1509.137207,1572.718628 1509.137207,1564.986816 1509.137207,1557.006104 
	C1493.502686,1563.077881 1478.190430,1559.232910 1462.904907,1560.006348 
	C1462.904907,1552.041016 1462.904907,1545.226318 1462.904907,1537.593750 
	C1478.728394,1537.593750 1493.986938,1537.341064 1509.230591,1537.710938 
	C1515.858032,1537.871704 1522.454346,1539.312378 1529.567627,1540.236938 
	C1530.026245,1532.919312 1530.847046,1524.644287 1529.176636,1517.395020 
	C1523.191284,1518.430786 1518.205078,1519.981567 1513.201172,1520.041504 
	C1490.569458,1520.312134 1467.932617,1520.134399 1445.297852,1520.197021 
	C1442.550659,1520.204590 1439.804932,1520.689209 1437.948975,1520.867310 
	C1438.788452,1526.367920 1439.993896,1530.742065 1440.034302,1535.127075 
	C1440.234009,1556.761597 1440.266846,1578.400513 1440.043457,1600.034546 
	C1439.971313,1607.018921 1438.940063,1613.993530 1438.274048,1621.839722 
	C1440.917603,1621.839722 1444.181396,1621.839722 1447.445068,1621.839722 
	C1469.414307,1621.839844 1491.384155,1621.750610 1513.352417,1621.899536 
	C1519.205688,1621.939209 1525.054077,1622.708618 1531.344727,1623.175659 
	C1531.344727,1615.955444 1531.344727,1608.254639 1531.344727,1598.433716 
	C1525.214600,1605.662842 1518.440186,1604.334229 1511.974487,1604.398682 
	C1505.650635,1604.461548 1499.325684,1604.412476 1491.006592,1604.412598 
M701.056885,1183.977417 
	C718.358032,1158.699341 719.457947,1125.720581 703.294617,1108.069824 
	C683.448059,1121.200684 674.162415,1140.421021 672.076355,1165.882080 
	C658.421936,1145.073608 641.819275,1133.189575 619.209351,1131.090088 
	C618.627502,1132.196045 618.111755,1132.749023 618.054810,1133.345825 
	C615.341125,1161.783325 635.731812,1197.052612 674.574158,1203.289307 
	C675.815491,1203.488647 678.168884,1203.426636 678.274780,1203.027588 
	C679.757874,1197.439087 685.992615,1199.691406 688.902100,1196.336914 
	C692.368713,1192.339722 696.385681,1188.819946 701.056885,1183.977417 
M1682.454834,1145.499512 
	C1682.651733,1140.998047 1682.848755,1136.496460 1683.088745,1131.013672 
	C1658.623291,1133.210693 1642.060303,1145.576538 1628.622559,1165.843018 
	C1626.954468,1140.254150 1617.254883,1121.105469 1597.003540,1107.698853 
	C1595.807739,1109.030518 1594.999146,1109.669922 1594.522095,1110.499756 
	C1578.433960,1138.487061 1585.953613,1176.319580 1611.477417,1195.825684 
	C1613.055908,1197.031982 1615.270508,1199.338745 1616.353882,1198.928345 
	C1621.255371,1197.071899 1621.065308,1202.101929 1623.237183,1203.524414 
	C1653.724976,1200.773682 1678.334839,1175.672241 1682.454834,1145.499512 
M897.326233,1573.526978 
	C891.589478,1561.521973 885.983643,1549.451782 880.056458,1537.541504 
	C877.393616,1532.190918 874.699707,1527.049683 877.969849,1520.837402 
	C865.977905,1520.837402 854.848755,1520.837402 844.806091,1520.837402 
	C843.859436,1526.086182 843.847412,1530.810547 842.136108,1534.807495 
	C835.854309,1549.478882 829.307129,1564.055054 822.289734,1578.387817 
	C815.385864,1592.489014 811.422791,1608.114624 799.085266,1621.087891 
	C810.827393,1621.087891 820.788696,1621.087891 831.055847,1621.087891 
	C826.705688,1613.493286 826.695679,1613.488281 830.613953,1605.731323 
	C831.663879,1603.652710 832.462891,1601.309937 833.987793,1599.649170 
	C835.380798,1598.131958 837.584290,1596.458252 839.457886,1596.425781 
	C854.393311,1596.166016 869.335327,1596.280762 884.481934,1596.280762 
	C887.884766,1604.627808 895.566772,1611.287354 889.533936,1621.132324 
	C900.373840,1621.132324 910.790283,1621.132324 922.594543,1621.132324 
	C910.925171,1606.543335 905.912415,1589.963135 897.326233,1573.526978 
M1597.398804,1596.260132 
	C1609.365601,1596.260132 1621.332275,1596.260132 1632.934692,1596.260132 
	C1641.694092,1610.576660 1642.196899,1612.816528 1638.524292,1621.140991 
	C1649.074707,1621.140991 1659.467773,1621.140991 1670.754517,1621.140991 
	C1667.458862,1615.604614 1664.329956,1611.124756 1661.979858,1606.268066 
	C1650.817505,1583.200073 1639.725342,1560.095093 1628.959717,1536.840576 
	C1626.779785,1532.131714 1626.118896,1526.719604 1624.516724,1520.731445 
	C1614.903564,1520.731445 1603.812500,1520.731445 1594.165161,1520.731445 
	C1592.721069,1526.845947 1592.263672,1532.384399 1590.135864,1537.182007 
	C1579.747925,1560.604370 1568.972656,1583.856201 1558.169922,1607.091919 
	C1556.663330,1610.332520 1554.207153,1613.124878 1552.269043,1616.174561 
	C1551.351562,1617.618530 1550.619019,1619.180298 1549.585693,1621.089355 
	C1560.290527,1621.089355 1569.998291,1621.089355 1580.536133,1621.089355 
	C1571.886230,1610.023193 1582.326904,1604.209961 1584.809937,1596.260132 
	C1588.887573,1596.260132 1592.209351,1596.260132 1597.398804,1596.260132 
M1172.594849,1881.628540 
	C1168.131104,1884.168579 1164.297729,1884.087402 1159.873169,1880.644897 
	C1152.679077,1875.047119 1144.829468,1870.291992 1135.574707,1864.046021 
	C1136.064697,1873.718506 1135.635742,1881.389526 1137.031738,1888.712891 
	C1138.764038,1897.800537 1135.969360,1903.705200 1128.422241,1908.681763 
	C1122.130981,1912.830444 1116.601074,1918.133423 1109.383057,1924.028564 
	C1119.198120,1926.700562 1127.325317,1929.594360 1135.702148,1930.984131 
	C1142.760376,1932.155273 1145.809937,1935.882812 1147.742188,1942.220947 
	C1150.270020,1950.512085 1153.580322,1958.564575 1157.135620,1968.314575 
	C1160.928833,1962.146484 1163.692383,1957.651733 1166.456787,1953.157471 
	C1176.647095,1936.590454 1176.647339,1936.594116 1195.720581,1936.067871 
	C1200.844116,1935.926636 1205.966797,1935.755981 1212.987305,1935.540649 
	C1208.496826,1929.949707 1205.371704,1926.152588 1202.350586,1922.274292 
	C1198.276367,1917.044067 1192.104248,1912.211670 1190.867310,1906.356323 
	C1189.634155,1900.517944 1193.587402,1893.667969 1194.881470,1887.184692 
	C1195.873047,1882.217407 1199.102905,1877.552002 1197.533813,1871.452271 
	C1189.327637,1874.780396 1181.653931,1877.892456 1172.594849,1881.628540 
M664.006348,646.952698 
	C651.046204,631.312195 638.087646,615.670532 625.123840,600.033020 
	C623.636414,598.238892 622.230042,596.360107 620.597412,594.706909 
	C614.128906,588.156860 604.464783,587.559082 598.168396,593.231140 
	C592.006470,598.782043 591.346069,607.723145 596.643616,614.899963 
	C597.826233,616.502075 599.243469,617.932434 600.568298,619.427917 
	C622.650513,644.354736 644.728333,669.285339 666.830078,694.194885 
	C668.992554,696.632141 671.304749,698.936523 674.111084,701.897156 
	C681.163696,695.880981 687.830505,690.193909 694.836365,684.217651 
	C684.396973,671.599854 674.653687,659.823425 664.006348,646.952698 
M1715.768433,601.860535 
	C1709.129761,586.872437 1696.992310,584.796204 1686.465820,596.851440 
	C1685.809082,597.603638 1685.187378,598.386475 1684.550171,599.155823 
	C1662.887329,625.316345 1641.218750,651.472290 1619.572754,677.646912 
	C1617.911011,679.656433 1616.409302,681.798279 1614.327271,684.546509 
	C1621.381226,690.469482 1628.087646,696.100647 1634.590576,701.560974 
	C1635.978760,700.601807 1636.628662,700.315918 1637.057007,699.833374 
	C1661.820068,671.948242 1686.561890,644.044189 1711.314697,616.150024 
	C1714.546753,612.507812 1716.423706,608.396484 1715.768433,601.860535 
M1000.656860,1549.604004 
	C997.611511,1553.836426 994.566223,1558.068848 991.032410,1562.980103 
	C984.252747,1554.188721 978.276733,1546.233032 972.069397,1538.462036 
	C967.853821,1533.184570 962.923096,1528.271606 968.300781,1520.850464 
	C948.598938,1519.044800 936.058167,1519.666992 930.953003,1522.553711 
	C934.370728,1525.492310 938.336731,1528.000732 941.125488,1531.458374 
	C952.399231,1545.436157 963.378662,1559.654053 974.284668,1573.922485 
	C976.003357,1576.171143 977.957458,1579.209351 977.800598,1581.759277 
	C976.991394,1594.909302 981.224976,1608.459595 973.933289,1621.836548 
	C984.629211,1621.382690 994.361328,1622.879761 1003.021301,1621.115356 
	C1001.956238,1615.611694 1000.618774,1611.065308 1000.294617,1606.447876 
	C999.853027,1600.158081 1000.417664,1593.802490 1000.112183,1587.496582 
	C999.858521,1582.260132 1001.079895,1577.923950 1004.557007,1573.818359 
	C1019.027039,1556.733032 1030.500122,1537.191895 1047.521118,1521.982422 
	C1039.075806,1519.358521 1013.898621,1519.306274 1012.346741,1522.322266 
	C1013.280151,1523.872681 1014.400513,1525.733765 1015.874084,1528.181274 
	C1011.082458,1534.949585 1006.302612,1541.701172 1000.656860,1549.604004 
M1668.282471,1037.063232 
	C1658.281494,1042.736450 1651.356445,1051.519287 1644.744507,1062.501465 
	C1641.553833,1040.783569 1632.328369,1025.391602 1614.504639,1015.329895 
	C1600.101807,1040.799438 1608.691528,1074.549072 1632.270996,1089.526855 
	C1635.482910,1091.567017 1639.245483,1091.976440 1642.602173,1093.964111 
	C1645.392090,1095.616089 1651.439331,1092.788086 1655.593628,1090.935303 
	C1672.108398,1083.569946 1682.777588,1070.792725 1687.449219,1053.464478 
	C1689.457764,1046.013794 1691.552246,1038.093872 1687.359009,1029.251831 
	C1681.128174,1031.713867 1675.339722,1034.001099 1668.282471,1037.063232 
M626.747620,1034.029419 
	C622.149658,1032.627441 617.551758,1031.225586 612.917603,1029.812622 
	C607.489014,1052.526367 620.709595,1080.344727 645.232300,1090.957886 
	C649.144165,1092.651001 654.444458,1095.501831 657.317810,1094.116211 
	C660.853516,1092.411133 664.853027,1091.867065 668.171631,1089.711060 
	C693.250183,1073.418945 701.058716,1038.360718 686.124573,1015.042542 
	C681.966553,1018.268982 677.593872,1021.172913 673.800354,1024.699829 
	C663.512878,1034.263916 658.528870,1046.718506 656.039062,1062.243286 
	C648.274536,1049.450928 639.925598,1040.194092 626.747620,1034.029419 
M676.248169,985.197388 
	C689.210754,969.500977 693.193542,952.152527 686.813354,932.003296 
	C678.646790,934.550049 672.373413,938.289856 667.351562,943.647400 
	C662.552185,948.767761 658.463501,954.554260 653.620117,960.599976 
	C647.453674,945.574036 638.338623,934.382507 623.538757,928.520874 
	C612.222473,951.174683 622.103821,982.953003 646.346924,996.318970 
	C652.733704,999.840210 658.100464,999.953430 663.679443,995.650635 
	C667.620544,992.611206 671.424805,989.394287 676.248169,985.197388 
M1657.678711,942.713623 
	C1654.010498,948.502014 1650.342285,954.290405 1646.329468,960.622742 
	C1638.990967,947.609802 1629.539551,936.966370 1614.786377,932.325378 
	C1604.517578,955.595520 1616.896362,987.499512 1642.807373,998.404175 
	C1644.635864,999.173706 1647.314819,999.095154 1649.203369,998.374939 
	C1680.588989,986.403564 1688.849731,947.856628 1677.065674,928.669067 
	C1669.747192,931.270569 1663.878052,936.001526 1657.678711,942.713623 
M1304.145996,1873.438477 
	C1304.457397,1876.583862 1305.163208,1879.750977 1304.991211,1882.869751 
	C1304.708008,1888.003906 1303.856323,1893.106812 1303.039551,1899.935181 
	C1311.338013,1895.155396 1317.855957,1891.401123 1323.993530,1887.865967 
	C1331.306274,1891.409790 1337.850952,1894.581299 1345.787842,1898.427612 
	C1344.564697,1892.270508 1343.855591,1887.411377 1342.598755,1882.698242 
	C1341.006104,1876.724854 1341.620605,1871.804932 1346.699463,1867.507812 
	C1350.310913,1864.451782 1353.192139,1860.532715 1357.439087,1855.853394 
	C1352.230713,1855.076172 1348.946411,1853.982666 1345.764038,1854.224731 
	C1336.319458,1854.943481 1331.107544,1850.354370 1327.852417,1841.977905 
	C1326.548706,1838.622925 1325.297974,1834.706177 1321.302734,1832.259521 
	C1319.161743,1837.166992 1316.848877,1841.285522 1315.560791,1845.703003 
	C1313.706787,1852.062012 1309.662598,1854.711060 1303.363037,1855.343628 
	C1298.857910,1855.796265 1294.433228,1857.048828 1288.273071,1858.285767 
	C1294.028320,1863.730591 1298.577393,1868.034302 1304.145996,1873.438477 
M1020.860352,1886.100098 
	C1018.638184,1878.613647 1020.282776,1872.559326 1026.976440,1867.944214 
	C1030.455078,1865.545776 1033.489014,1862.501953 1038.139404,1858.545288 
	C1028.230225,1856.401001 1020.845764,1854.802979 1013.539307,1853.221924 
	C1010.240051,1845.864136 1007.151062,1838.975342 1003.466675,1830.758667 
	C1000.085144,1837.194702 997.172485,1842.026001 994.960571,1847.159180 
	C992.957336,1851.808105 989.711243,1853.492676 984.915100,1853.774414 
	C979.829102,1854.073120 974.778625,1854.975464 968.011536,1855.828735 
	C973.191833,1861.488770 976.800781,1865.807861 980.821655,1869.701782 
	C983.831726,1872.616699 984.470703,1875.695190 983.558228,1879.607666 
	C982.215393,1885.365723 981.181946,1891.196045 979.728699,1898.429199 
	C987.868652,1894.502686 994.650330,1891.231323 1001.583740,1887.886841 
	C1008.178101,1891.645020 1014.594604,1895.301758 1022.407715,1899.754517 
	C1021.870239,1894.344360 1021.544250,1891.062988 1020.860352,1886.100098 
M1492.459229,1713.582520 
	C1492.459229,1726.042725 1492.459229,1738.503052 1492.459229,1751.470947 
	C1503.701172,1751.470947 1515.313721,1751.556641 1526.923218,1751.405640 
	C1529.545654,1751.371582 1532.249878,1750.798584 1534.757812,1749.984985 
	C1544.452759,1746.839478 1547.310913,1737.560303 1541.151855,1729.375000 
	C1539.965698,1727.798584 1538.352783,1726.543457 1536.854736,1725.058960 
	C1538.280151,1723.205200 1539.942139,1721.505127 1541.065552,1719.502808 
	C1546.011108,1710.688599 1540.990601,1701.774170 1529.324341,1700.861328 
	C1516.813843,1699.882568 1504.167358,1700.640625 1491.547119,1700.640625 
	C1491.878540,1704.679077 1492.168335,1708.211304 1492.459229,1713.582520 
M815.417480,1717.674072 
	C815.258118,1716.415161 815.098816,1715.156128 814.938232,1713.887207 
	C805.137085,1713.887207 795.784363,1713.887207 786.343262,1713.887207 
	C786.343262,1709.221313 786.343262,1705.326416 786.343262,1701.175415 
	C800.850769,1701.175415 814.916016,1701.175415 829.078735,1701.175415 
	C829.078735,1697.064941 829.078735,1692.988770 829.078735,1690.077026 
	C809.256958,1690.077026 790.068176,1690.077026 771.556152,1690.077026 
	C771.556152,1711.164429 771.556152,1731.123535 771.556152,1751.177734 
	C776.957825,1751.177734 782.184937,1751.177734 786.740479,1751.177734 
	C786.740479,1742.403687 786.740479,1734.032104 786.740479,1725.204834 
	C796.256836,1725.009399 805.626770,1723.142944 815.424072,1727.709106 
	C815.424072,1724.364624 815.424072,1721.768799 815.417480,1717.674072 
M1316.034424,1738.169312 
	C1307.730347,1741.466187 1299.273315,1742.495239 1290.683716,1739.468018 
	C1282.588257,1736.614868 1277.433350,1729.644287 1277.089355,1721.473267 
	C1276.739868,1713.171387 1281.070190,1705.375854 1289.219482,1702.686768 
	C1294.709595,1700.875244 1301.054932,1700.049438 1306.728271,1700.845459 
	C1312.562500,1701.664185 1318.045044,1704.988281 1324.178711,1707.412476 
	C1326.249268,1704.075806 1328.574341,1700.328857 1331.027954,1696.374634 
	C1326.625000,1694.940796 1323.505981,1693.844971 1320.339844,1692.908081 
	C1308.933594,1689.533447 1297.443604,1688.548340 1285.923584,1692.259766 
	C1271.911011,1696.774414 1263.614990,1708.271484 1264.124268,1722.228516 
	C1264.630005,1736.088867 1273.876343,1746.415283 1288.413330,1750.147461 
	C1304.398804,1754.251343 1318.414551,1749.646729 1332.493652,1741.466064 
	C1329.936279,1737.534912 1327.681274,1734.068481 1325.769165,1731.129150 
	C1322.584595,1733.644043 1320.048828,1735.646484 1316.034424,1738.169312 
M1100.505981,1718.203979 
	C1110.592529,1729.044556 1120.679077,1739.885132 1131.493408,1751.508057 
	C1132.191772,1751.508057 1134.184692,1751.616333 1136.160034,1751.476562 
	C1138.003906,1751.346191 1139.829224,1750.952271 1141.138184,1750.753906 
	C1141.138184,1733.587402 1141.138184,1717.163452 1141.138184,1700.832275 
	C1137.403076,1700.832275 1134.199463,1700.832275 1130.598877,1700.832275 
	C1130.598877,1711.582520 1130.598877,1721.885742 1130.598877,1732.188965 
	C1130.029541,1732.477783 1129.460083,1732.766724 1128.890747,1733.055664 
	C1119.148438,1722.587036 1109.406250,1712.118408 1098.901123,1700.829956 
	C1095.954834,1700.829956 1091.420898,1700.829956 1086.633301,1700.829956 
	C1086.633301,1717.707031 1086.633301,1734.127441 1086.633301,1750.950195 
	C1090.323853,1750.950195 1093.745605,1750.950195 1096.633423,1750.950195 
	C1096.633423,1740.855713 1096.525146,1731.312500 1096.740967,1721.776733 
	C1096.776611,1720.201294 1098.230713,1718.658081 1100.505981,1718.203979 
M927.834045,1725.135010 
	C935.724060,1733.582153 943.614075,1742.029297 952.019104,1751.027832 
	C954.580261,1751.027832 958.459900,1751.027832 962.284424,1751.027832 
	C962.284424,1734.061646 962.284424,1717.625854 962.284424,1700.940918 
	C958.366211,1700.940918 954.585938,1700.940918 951.293945,1700.940918 
	C951.293945,1711.925415 951.293945,1722.298950 951.293945,1734.724609 
	C939.883545,1722.630371 929.792847,1711.934814 919.359924,1700.876709 
	C915.865051,1700.876709 911.317078,1700.876709 907.272827,1700.876709 
	C907.272827,1717.847778 907.272827,1734.280396 907.272827,1750.879517 
	C911.096436,1750.879517 914.854004,1750.879517 917.730042,1750.879517 
	C917.730042,1744.591309 917.730103,1738.990723 917.730103,1733.390015 
	C917.730103,1727.919189 917.730042,1722.448364 917.730042,1714.926270 
	C921.875366,1719.093628 924.363586,1721.595215 927.834045,1725.135010 
M1182.145752,1751.397827 
	C1193.607910,1752.552368 1204.592529,1751.327148 1214.616699,1745.273193 
	C1214.616699,1738.749268 1214.616699,1732.599487 1214.616699,1725.410522 
	C1205.965576,1725.410522 1197.250122,1725.410522 1187.786743,1725.410522 
	C1187.921631,1728.114746 1188.073853,1731.164795 1188.191284,1733.519287 
	C1194.067017,1733.519287 1198.860229,1733.519287 1203.628540,1733.519287 
	C1204.049927,1740.343750 1204.134277,1740.652832 1200.665405,1741.599121 
	C1193.879395,1743.450317 1187.011108,1744.372681 1180.038818,1742.133301 
	C1171.928711,1739.528320 1167.809814,1734.261108 1167.798950,1726.091431 
	C1167.787964,1717.828857 1171.812134,1712.393677 1179.829102,1709.888306 
	C1190.015991,1706.704834 1199.144653,1708.907715 1207.544922,1716.008179 
	C1209.339111,1712.337402 1210.896240,1709.151489 1212.643799,1705.575928 
	C1207.618408,1703.992432 1203.319824,1702.488037 1198.937744,1701.287842 
	C1189.286743,1698.644653 1179.798462,1699.440674 1170.729248,1703.558350 
	C1158.843994,1708.954468 1153.680054,1720.853516 1157.403687,1733.359253 
	C1160.829102,1744.864136 1169.747803,1749.111938 1182.145752,1751.397827 
M878.621216,1751.601318 
	C882.182190,1751.601318 885.743164,1751.601318 889.804382,1751.601318 
	C889.530029,1747.663208 889.311157,1744.522461 889.108032,1741.606689 
	C877.073364,1741.606689 865.991455,1741.606689 854.438782,1741.606689 
	C854.667908,1737.231445 854.850891,1733.736572 855.053284,1729.872559 
	C863.009827,1729.872559 870.184998,1729.872559 877.639282,1729.872559 
	C877.639282,1726.320435 877.639282,1723.213135 877.639282,1719.500732 
	C869.652954,1719.500732 862.253601,1719.500732 854.386963,1719.500732 
	C854.667603,1715.809814 854.882385,1712.984497 855.117126,1709.896729 
	C866.378235,1709.896729 876.856140,1709.896729 887.720337,1709.896729 
	C887.720337,1706.377441 887.720337,1702.913574 887.720337,1700.600342 
	C872.366028,1700.600342 857.614075,1700.600342 843.315308,1700.600342 
	C843.315308,1718.205566 843.315308,1734.647217 843.315308,1751.600586 
	C854.791504,1751.600586 865.755432,1751.600586 878.621216,1751.601318 
M1443.126587,1742.692383 
	C1430.012329,1740.934082 1427.962646,1738.649780 1427.905151,1725.567749 
	C1427.869263,1717.396606 1427.898560,1709.225220 1427.898560,1700.924561 
	C1424.015869,1700.924561 1419.533447,1700.924561 1415.749268,1700.924561 
	C1416.200195,1705.021484 1416.828125,1708.570068 1416.932129,1712.134155 
	C1417.126343,1718.791382 1416.804565,1725.466431 1417.084351,1732.117676 
	C1417.481323,1741.556885 1421.590088,1746.958618 1430.522461,1749.741455 
	C1438.275513,1752.156860 1446.165161,1752.573853 1454.174805,1750.597656 
	C1466.422241,1747.575806 1470.907593,1742.288208 1471.119019,1729.619141 
	C1471.277832,1720.097656 1471.150513,1710.571411 1471.150513,1700.718384 
	C1467.535767,1700.718384 1463.346558,1700.718384 1459.203003,1700.718384 
	C1459.544800,1704.963379 1459.989258,1708.800415 1460.127686,1712.648438 
	C1460.283203,1716.973511 1460.184326,1721.308594 1460.157715,1725.639160 
	C1460.077393,1738.691162 1458.024170,1740.972656 1443.126587,1742.692383 
M991.766235,1714.744995 
	C1002.244690,1706.363647 1011.912415,1706.304810 1024.724243,1714.959839 
	C1026.608032,1712.060791 1028.482300,1709.176514 1030.685059,1705.786621 
	C1025.399292,1704.060547 1021.077026,1702.539307 1016.689087,1701.239868 
	C1008.748352,1698.888306 1000.863525,1699.430176 993.205627,1702.395630 
	C982.873291,1706.396606 976.609497,1715.699097 976.821228,1726.326416 
	C977.041443,1737.380493 983.971252,1747.121826 994.986206,1749.830200 
	C1000.943359,1751.295044 1007.543335,1751.600342 1013.615234,1750.742920 
	C1019.971436,1749.845215 1026.042358,1746.927246 1033.426147,1744.502197 
	C1030.409668,1740.316162 1028.053345,1737.046387 1025.502808,1733.507202 
	C1017.743469,1743.284058 1005.248169,1745.972168 996.449097,1740.550171 
	C988.354858,1735.562500 986.389893,1727.089722 991.766235,1714.744995 
M1352.613647,1711.716309 
	C1352.613647,1724.807129 1352.613647,1737.897949 1352.613647,1751.437134 
	C1367.735962,1751.437134 1383.590210,1751.437134 1399.777100,1751.437134 
	C1399.777100,1748.119629 1399.777100,1744.739746 1399.777100,1741.742554 
	C1387.718140,1741.742554 1376.293335,1741.742554 1364.767700,1741.742554 
	C1364.767700,1727.680176 1364.767700,1714.299927 1364.767700,1700.790161 
	C1360.293945,1700.790161 1355.782715,1700.790161 1351.361206,1700.790161 
	C1351.824585,1704.174927 1352.217163,1707.042603 1352.613647,1711.716309 
M1050.536621,1736.595459 
	C1050.249268,1741.360596 1049.961914,1746.125732 1049.664917,1751.051270 
	C1054.244385,1751.051270 1058.993408,1751.051270 1062.273315,1751.051270 
	C1062.171021,1733.949463 1061.528076,1717.422363 1062.822876,1700.791626 
	C1058.581665,1700.791626 1053.759888,1700.791626 1050.400513,1700.791626 
	C1050.447510,1712.429688 1050.492310,1723.560791 1050.536621,1736.595459 
z"/>
<path fill="#FEFDFD" opacity="1.000000" stroke="none" 
	d="
M1158.292725,1256.024658 
	C1186.976929,1259.488403 1214.801270,1262.231812 1243.706421,1258.047363 
	C1246.219849,1262.801636 1248.787964,1267.659424 1252.229980,1274.170288 
	C1239.483398,1275.536255 1228.109497,1277.263550 1216.677368,1277.845825 
	C1203.710449,1278.506348 1190.690918,1278.234863 1177.694702,1278.208252 
	C1071.710083,1277.990479 965.725525,1277.735107 859.740967,1277.492188 
	C856.788208,1277.485352 853.835388,1277.491333 850.070251,1277.491333 
	C850.070251,1271.085571 850.070251,1265.338989 850.070251,1258.857300 
	C863.931458,1254.643188 877.824158,1250.205078 891.842529,1246.208008 
	C912.527100,1240.310059 919.796814,1232.173828 922.355774,1210.682373 
	C923.141418,1204.083374 923.641724,1197.406006 923.644653,1190.764404 
	C923.714478,1030.120483 923.701172,869.476624 923.686829,708.832703 
	C923.686462,704.835876 923.587891,700.834717 923.386780,696.843079 
	C922.970032,688.569275 918.586731,682.957947 910.896423,680.530518 
	C904.582703,678.537476 898.004761,677.207397 891.450012,676.186951 
	C875.986694,673.779968 860.464233,671.755188 844.974854,669.512573 
	C843.017456,669.229065 841.114990,668.566040 838.658203,667.945251 
	C838.658203,662.049683 838.658203,656.206116 838.658203,649.341248 
	C849.778320,648.314636 860.945068,646.933960 872.153870,646.303833 
	C969.980103,640.804199 1067.828247,635.934448 1165.854492,636.021851 
	C1203.622803,636.055542 1241.081665,638.608093 1277.839844,647.908691 
	C1302.872803,654.242615 1326.683960,663.502625 1348.046143,678.270569 
	C1391.019775,707.978638 1411.891113,764.616089 1398.123047,813.922302 
	C1392.197388,835.142578 1379.627441,852.103638 1363.668335,866.793945 
	C1345.595215,883.430542 1324.757690,895.830627 1302.666260,906.276062 
	C1299.671265,907.692200 1296.670288,909.095642 1292.482056,911.064270 
	C1295.160400,912.298706 1296.911133,913.397339 1298.819946,913.941284 
	C1322.598267,920.718079 1345.588379,929.420959 1366.969971,941.980652 
	C1399.508423,961.093811 1425.863403,986.205017 1438.083008,1022.715759 
	C1463.199951,1097.762817 1446.473999,1163.415527 1387.082642,1214.014038 
	C1381.270630,1218.965698 1375.125122,1223.525879 1368.307129,1228.922607 
	C1402.218872,1295.789795 1436.126587,1362.649414 1470.833618,1431.084839 
	C1465.988525,1431.084839 1462.768066,1431.084839 1459.547729,1431.084839 
	C1429.552002,1431.084839 1399.552490,1430.833740 1369.562988,1431.264282 
	C1362.212402,1431.369873 1358.487915,1429.004028 1355.180786,1422.427612 
	C1307.014893,1326.649292 1258.556152,1231.018188 1210.155762,1135.357910 
	C1208.547729,1132.179565 1206.819336,1129.062012 1204.275269,1124.276123 
	C1182.350708,1167.594604 1161.092407,1209.596436 1139.271240,1252.710571 
	C1145.977295,1253.902832 1151.696533,1254.919556 1158.292725,1256.024658 
M1062.613037,673.641846 
	C1050.759277,674.850098 1038.905640,676.058350 1026.904053,677.281677 
	C1026.904053,759.756836 1026.904053,840.887878 1026.904053,922.869507 
	C1030.876587,923.216064 1034.436279,923.749878 1038.003296,923.804138 
	C1086.620850,924.543945 1135.238159,925.524231 1183.858276,925.696960 
	C1196.405273,925.741577 1209.236572,924.407837 1221.463867,921.626282 
	C1264.638794,911.804749 1298.440674,888.984863 1317.430542,847.717529 
	C1328.988281,822.601257 1331.759033,796.039795 1328.324951,768.653320 
	C1323.661133,731.462280 1305.269775,704.114136 1271.418945,687.430847 
	C1249.568359,676.661865 1226.247070,671.484070 1202.175537,670.067505 
	C1156.200439,667.362000 1110.318359,670.368530 1062.613037,673.641846 
M1105.852905,1245.369995 
	C1110.269165,1246.418701 1114.685425,1247.467407 1118.135864,1248.286743 
	C1119.816284,1243.156128 1120.668579,1238.709595 1122.633667,1234.826050 
	C1162.458862,1156.125977 1202.406982,1077.488159 1242.359497,998.852661 
	C1243.623169,996.365234 1245.193359,994.033447 1247.214722,990.628235 
	C1281.462891,1058.042603 1315.124023,1124.301514 1349.410645,1191.791748 
	C1360.781616,1176.289673 1367.721436,1160.680786 1371.982910,1143.788696 
	C1376.960571,1124.057007 1376.327148,1104.117676 1373.721680,1084.207642 
	C1366.598022,1029.771729 1338.234009,992.058838 1285.900635,973.301514 
	C1257.706299,963.196167 1228.485596,958.053711 1198.747559,958.106079 
	C1144.784668,958.201050 1090.823975,959.691223 1036.863281,960.657959 
	C1033.596313,960.716553 1030.338623,961.293579 1026.927612,961.644714 
	C1026.717407,964.322388 1026.428955,966.287109 1026.428345,968.251892 
	C1026.406372,1039.220703 1026.444458,1110.189575 1026.377808,1181.158447 
	C1026.367310,1192.409302 1029.913940,1202.338379 1037.901489,1210.026733 
	C1044.081543,1215.975220 1051.002808,1221.371094 1058.278809,1225.917603 
	C1072.485107,1234.795044 1088.264038,1240.214478 1105.852905,1245.369995 
z"/>
<path fill="#FDFBFB" opacity="1.000000" stroke="none" 
	d="
M679.153992,783.405884 
	C662.044922,788.841736 645.502808,792.151062 628.333130,788.107971 
	C619.525635,786.033997 611.277283,782.864868 604.454041,775.174744 
	C660.109192,728.465576 715.390137,682.070496 771.062195,635.347107 
	C777.706909,642.383850 779.173340,650.845764 779.857788,659.368103 
	C781.034485,674.020325 777.038147,687.725403 771.087952,700.935486 
	C764.320801,715.959595 754.552429,728.971130 742.912109,741.791199 
	C745.437378,744.976196 747.801086,748.072571 750.283386,751.070923 
	C788.304626,796.997131 826.342712,842.909424 864.369812,888.830872 
	C866.068298,890.881958 867.978760,892.826965 869.300354,895.105713 
	C871.712463,899.264893 870.837769,904.185852 867.587952,906.947510 
	C864.157837,909.862366 859.497864,910.045715 855.698181,906.896240 
	C853.156616,904.789490 851.058167,902.131226 848.850769,899.640625 
	C809.744873,855.515137 770.656738,811.374023 731.547729,767.251282 
	C729.165283,764.563416 726.641357,762.000916 723.812561,758.984802 
	C709.858704,769.027039 695.679199,777.589172 679.153992,783.405884 
z"/>
<path fill="#FDFBFB" opacity="1.000000" stroke="none" 
	d="
M1461.911133,867.896362 
	C1496.759766,825.820984 1531.168457,784.302551 1565.991211,742.284424 
	C1564.064697,739.895813 1562.302368,737.599670 1560.425537,735.401245 
	C1546.634888,719.248108 1535.662354,701.526062 1530.958618,680.559326 
	C1527.520508,665.234558 1527.848022,650.200317 1536.322754,636.212158 
	C1543.826294,639.525391 1681.390625,753.705322 1704.036377,775.333191 
	C1700.165405,781.108459 1694.098022,783.721741 1687.970215,785.973877 
	C1672.714478,791.580811 1657.255127,790.585632 1641.771606,786.854248 
	C1624.406982,782.669617 1608.655029,774.962769 1593.908447,765.044006 
	C1591.168091,763.200806 1588.448608,761.326477 1585.158203,759.083984 
	C1582.771606,761.596313 1580.471313,763.877441 1578.326416,766.296326 
	C1538.781616,810.888794 1499.256592,855.498779 1459.723022,900.101196 
	C1457.956665,902.093872 1456.300171,904.217834 1454.331055,905.990173 
	C1449.733765,910.128113 1444.837036,910.227539 1440.980225,906.497559 
	C1437.433716,903.067749 1436.936157,898.531494 1440.540161,893.913208 
	C1447.297119,885.254822 1454.470703,876.921753 1461.911133,867.896362 
z"/>
<path fill="#FDF9FA" opacity="1.000000" stroke="none" 
	d="
M1110.743896,1318.990234 
	C1129.374756,1356.191162 1147.648438,1392.735718 1165.967896,1429.371948 
	C1158.421753,1431.530762 1036.020508,1431.947144 1023.560120,1429.811035 
	C1047.128174,1382.680908 1070.547363,1335.848511 1094.844482,1287.260254 
	C1100.512207,1298.591797 1105.449463,1308.463013 1110.743896,1318.990234 
z"/>
<path fill="#FCF8F9" opacity="1.000000" stroke="none" 
	d="
M703.985718,1500.302856 
	C716.605530,1500.839233 728.364014,1500.479736 739.806213,1502.210571 
	C748.141357,1503.471680 756.610107,1506.471069 764.050354,1510.489380 
	C780.380676,1519.309082 781.933960,1545.285645 763.082397,1554.412231 
	C760.724731,1555.553589 758.512695,1556.995605 755.462036,1558.739136 
	C759.503235,1560.897949 762.969482,1562.485474 766.165833,1564.501099 
	C784.307861,1575.941650 784.838379,1600.672852 767.241272,1613.012817 
	C758.770630,1618.952759 749.014526,1621.455933 738.970947,1621.584595 
	C710.345459,1621.951172 681.712341,1621.734985 653.082336,1621.701172 
	C652.220215,1621.700195 651.358765,1621.177979 648.984009,1620.408569 
	C658.168518,1615.518066 656.094299,1607.707397 656.103394,1600.519897 
	C656.138794,1572.554688 656.154175,1544.589355 656.085815,1516.624390 
	C656.072449,1511.171265 658.125977,1504.688110 649.701965,1503.734375 
	C650.325378,1502.130371 650.418884,1501.805664 650.574585,1501.514038 
	C650.716187,1501.248657 650.922913,1500.806274 651.104858,1500.804321 
	C668.399231,1500.614868 685.694031,1500.459961 703.985718,1500.302856 
M748.032715,1595.332886 
	C757.564636,1583.821045 754.322571,1573.145630 739.952515,1569.315552 
	C736.470520,1568.387573 732.757080,1567.998169 729.142944,1567.954956 
	C715.527466,1567.791626 701.908813,1567.836548 688.291931,1567.906494 
	C686.448425,1567.915894 684.607971,1568.511230 683.054688,1568.784546 
	C683.054688,1579.595947 683.054688,1589.714966 683.054688,1600.099609 
	C700.349243,1600.099609 716.943298,1600.365723 733.518372,1599.922607 
	C737.957703,1599.803711 742.339172,1597.520264 748.032715,1595.332886 
M737.255432,1547.064697 
	C738.545410,1546.731567 739.875977,1546.507812 741.118652,1546.047119 
	C748.170349,1543.432129 750.430115,1540.305786 750.221313,1533.598145 
	C750.018250,1527.072388 747.322998,1523.747803 740.068420,1521.974365 
	C736.215088,1521.032104 732.196655,1520.374146 728.241211,1520.311523 
	C714.917114,1520.100342 701.587585,1520.171753 688.260864,1520.250732 
	C686.407410,1520.261719 684.557739,1520.920898 683.024414,1521.218262 
	C683.024414,1530.354004 683.024414,1538.851807 683.024414,1547.458862 
	C701.000000,1547.458862 718.275879,1547.458862 737.255432,1547.064697 
z"/>
<path fill="#FDFAFB" opacity="1.000000" stroke="none" 
	d="
M726.737732,1307.026611 
	C727.825867,1311.894653 725.232117,1313.322510 720.921814,1313.696411 
	C708.463440,1314.777344 696.378784,1313.284790 684.648499,1308.958252 
	C657.395752,1298.906494 638.200989,1276.281006 632.260803,1247.223389 
	C650.001282,1239.125732 676.028625,1246.518921 705.869751,1268.523682 
	C705.369995,1258.945923 703.849426,1249.903442 704.728516,1241.100342 
	C705.639832,1231.974609 708.186279,1222.834351 711.289307,1214.155151 
	C714.400635,1205.452881 719.268066,1197.441406 726.997070,1190.891479 
	C744.784973,1207.902954 753.226990,1228.462158 752.895508,1252.565186 
	C752.650757,1270.358276 747.100891,1286.550293 736.151367,1300.679199 
	C734.495605,1302.815552 731.834106,1304.172607 728.763245,1305.301636 
	C727.429382,1304.671021 726.970032,1304.628784 726.510681,1304.586670 
	C726.586365,1305.400024 726.662048,1306.213257 726.737732,1307.026611 
z"/>
<path fill="#FDFBFB" opacity="1.000000" stroke="none" 
	d="
M769.999390,1374.006714 
	C768.317505,1365.563477 765.772949,1357.186157 765.122437,1348.664185 
	C763.461731,1326.908081 769.597229,1307.386841 784.005981,1289.871338 
	C797.931824,1301.041016 806.398987,1314.882812 810.815002,1331.310791 
	C818.402771,1359.538452 811.454712,1384.599976 793.753540,1407.132446 
	C792.452637,1408.788452 790.092346,1409.846924 788.015320,1410.623169 
	C749.365723,1425.065063 702.714844,1404.264160 686.620056,1364.901123 
	C700.715515,1357.776978 715.632690,1356.686279 730.911621,1358.809082 
	C745.048035,1360.773315 757.566162,1366.879395 769.297607,1374.731567 
	C769.900391,1374.745728 770.356140,1375.056030 770.811890,1375.366333 
	C770.541077,1374.913086 770.270203,1374.459961 769.999390,1374.006714 
z"/>
<path fill="#FDFBFC" opacity="1.000000" stroke="none" 
	d="
M1532.195312,1374.206177 
	C1543.912476,1367.199463 1555.861206,1360.766235 1569.660645,1358.818848 
	C1584.781006,1356.685181 1599.428833,1358.084229 1614.219971,1364.573975 
	C1613.214844,1367.164185 1612.543701,1369.620850 1611.370239,1371.808228 
	C1593.697388,1404.749756 1555.061646,1421.565063 1518.920410,1412.507202 
	C1512.103149,1410.798706 1507.244263,1407.633545 1503.101318,1401.891479 
	C1478.633423,1367.979614 1482.817017,1320.818237 1513.123047,1292.854370 
	C1514.080078,1291.971313 1515.184082,1291.247681 1517.083130,1289.784424 
	C1536.331299,1314.860352 1540.968262,1341.824341 1530.621094,1372.647827 
	C1530.313110,1374.369141 1530.432983,1374.872803 1530.552734,1375.376465 
	C1531.100220,1374.986328 1531.647827,1374.596313 1532.195312,1374.206177 
z"/>
<path fill="#FDFBFB" opacity="1.000000" stroke="none" 
	d="
M1557.766968,1290.060547 
	C1537.170044,1250.984253 1552.018921,1209.104126 1574.545898,1191.122437 
	C1595.117065,1213.438965 1599.843262,1239.554199 1593.669312,1270.301880 
	C1615.567871,1250.375000 1639.397461,1240.829346 1667.793579,1245.468140 
	C1666.647217,1279.891602 1624.167114,1322.623047 1574.564697,1312.264893 
	C1574.362183,1310.258057 1574.141357,1308.068970 1573.921997,1305.896118 
	C1563.819946,1305.863403 1562.875854,1296.293823 1557.766968,1290.060547 
z"/>
<path fill="#FBF6F8" opacity="1.000000" stroke="none" 
	d="
M1213.919434,1506.309937 
	C1213.738647,1509.860962 1213.322876,1513.378540 1214.652100,1516.016846 
	C1230.357788,1547.192261 1246.231201,1578.284912 1262.340332,1609.253784 
	C1264.354370,1613.125610 1267.976807,1616.160645 1270.925903,1619.668945 
	C1264.461670,1622.308228 1242.130249,1622.763550 1230.838623,1620.625732 
	C1237.870239,1608.684448 1226.122803,1601.806396 1223.955688,1592.194092 
	C1204.717529,1592.194092 1186.146851,1592.194092 1167.201904,1592.194092 
	C1164.733398,1596.988403 1162.239380,1601.636719 1159.925049,1606.372925 
	C1156.409912,1613.567261 1156.462891,1613.593140 1160.366699,1620.380615 
	C1152.327881,1622.443848 1136.414795,1622.380127 1128.713745,1620.254150 
	C1141.771118,1601.788452 1149.146240,1580.410034 1159.276733,1560.445801 
	C1166.344604,1546.517334 1172.752563,1532.255127 1179.532104,1518.178955 
	C1183.595581,1509.741943 1183.661865,1509.773926 1178.307373,1502.561279 
	C1183.933472,1499.775024 1198.246704,1499.158691 1216.846802,1501.036621 
	C1215.968506,1502.841064 1215.231812,1504.354492 1213.919434,1506.309937 
M1185.425415,1552.549683 
	C1182.036255,1559.485229 1178.647095,1566.420776 1174.700317,1574.497559 
	C1188.979370,1574.344482 1201.335938,1574.900146 1214.772461,1574.100464 
	C1211.151489,1565.966675 1208.437134,1559.218262 1205.181396,1552.741943 
	C1202.050659,1546.514404 1200.601196,1539.296997 1195.026978,1533.628540 
	C1191.783691,1539.969116 1188.914062,1545.579224 1185.425415,1552.549683 
z"/>
<path fill="#FBF6F7" opacity="1.000000" stroke="none" 
	d="
M1311.913818,1621.825439 
	C1306.076660,1621.825439 1301.149536,1621.825439 1294.535522,1621.825439 
	C1301.106567,1613.293945 1299.283936,1604.731079 1299.333862,1596.458008 
	C1299.452515,1576.809448 1299.546753,1557.156982 1299.250610,1537.512207 
	C1299.171143,1532.236206 1297.655273,1526.981812 1296.666504,1520.904175 
	C1297.796753,1520.751709 1299.925659,1520.221313 1302.056152,1520.215088 
	C1321.372070,1520.158325 1340.697876,1519.847412 1360.000122,1520.368896 
	C1367.884155,1520.582153 1375.883911,1522.024658 1383.534424,1524.036255 
	C1394.127808,1526.821899 1400.519165,1534.036743 1401.955200,1545.204712 
	C1403.454712,1556.866333 1399.545288,1566.246948 1389.801636,1572.820679 
	C1386.019897,1575.372070 1381.654053,1577.057739 1376.748047,1579.546753 
	C1386.731934,1593.119751 1393.746460,1608.668823 1407.338623,1619.458862 
	C1401.647827,1622.304321 1384.878296,1622.879028 1371.785889,1620.582397 
	C1376.588745,1615.215210 1373.519531,1610.945190 1370.369995,1606.476807 
	C1365.576904,1599.676880 1360.989136,1592.728516 1356.456665,1585.750610 
	C1354.720337,1583.077393 1352.872070,1581.206543 1349.345825,1581.265259 
	C1340.440308,1581.413940 1331.530518,1581.314575 1321.583252,1581.314575 
	C1322.709961,1595.030151 1318.738281,1608.120117 1325.408325,1621.825439 
	C1321.150513,1621.825439 1316.987183,1621.825439 1311.913818,1621.825439 
M1377.604004,1558.243652 
	C1383.096558,1547.093750 1379.996704,1539.349243 1368.031372,1538.457397 
	C1352.998657,1537.336914 1337.818970,1538.187622 1322.447754,1538.187622 
	C1322.447754,1546.873901 1322.447754,1554.982788 1322.447754,1563.674683 
	C1337.125977,1563.674683 1351.296265,1563.963623 1365.440063,1563.478882 
	C1369.149292,1563.351685 1372.776245,1560.824219 1377.604004,1558.243652 
z"/>
<path fill="#FAF3F5" opacity="1.000000" stroke="none" 
	d="
M1492.003906,1604.412598 
	C1499.325684,1604.412476 1505.650635,1604.461548 1511.974487,1604.398682 
	C1518.440186,1604.334229 1525.214600,1605.662842 1531.344727,1598.433716 
	C1531.344727,1608.254639 1531.344727,1615.955444 1531.344727,1623.175659 
	C1525.054077,1622.708618 1519.205688,1621.939209 1513.352417,1621.899536 
	C1491.384155,1621.750610 1469.414307,1621.839844 1447.445068,1621.839722 
	C1444.181396,1621.839722 1440.917603,1621.839722 1438.274048,1621.839722 
	C1438.940063,1613.993530 1439.971313,1607.018921 1440.043457,1600.034546 
	C1440.266846,1578.400513 1440.234009,1556.761597 1440.034302,1535.127075 
	C1439.993896,1530.742065 1438.788452,1526.367920 1437.948975,1520.867310 
	C1439.804932,1520.689209 1442.550659,1520.204590 1445.297852,1520.197021 
	C1467.932617,1520.134399 1490.569458,1520.312134 1513.201172,1520.041504 
	C1518.205078,1519.981567 1523.191284,1518.430786 1529.176636,1517.395020 
	C1530.847046,1524.644287 1530.026245,1532.919312 1529.567627,1540.236938 
	C1522.454346,1539.312378 1515.858032,1537.871704 1509.230591,1537.710938 
	C1493.986938,1537.341064 1478.728394,1537.593750 1462.904907,1537.593750 
	C1462.904907,1545.226318 1462.904907,1552.041016 1462.904907,1560.006348 
	C1478.190430,1559.232910 1493.502686,1563.077881 1509.137207,1557.006104 
	C1509.137207,1564.986816 1509.137207,1572.718628 1509.137207,1580.678345 
	C1493.967529,1574.974854 1478.758057,1578.910767 1463.051514,1577.542480 
	C1463.051514,1586.567505 1463.051514,1594.970947 1463.051514,1604.412598 
	C1472.540894,1604.412598 1481.773682,1604.412598 1492.003906,1604.412598 
z"/>
<path fill="#FDFAFA" opacity="1.000000" stroke="none" 
	d="
M700.610596,1184.535400 
	C696.385681,1188.819946 692.368713,1192.339722 688.902100,1196.336914 
	C685.992615,1199.691406 679.757874,1197.439087 678.274780,1203.027588 
	C678.168884,1203.426636 675.815491,1203.488647 674.574158,1203.289307 
	C635.731812,1197.052612 615.341125,1161.783325 618.054810,1133.345825 
	C618.111755,1132.749023 618.627502,1132.196045 619.209351,1131.090088 
	C641.819275,1133.189575 658.421936,1145.073608 672.076355,1165.882080 
	C674.162415,1140.421021 683.448059,1121.200684 703.294617,1108.069824 
	C719.457947,1125.720581 718.358032,1158.699341 700.610596,1184.535400 
z"/>
<path fill="#FDFAFA" opacity="1.000000" stroke="none" 
	d="
M1682.365723,1146.331787 
	C1678.334839,1175.672241 1653.724976,1200.773682 1623.237183,1203.524414 
	C1621.065308,1202.101929 1621.255371,1197.071899 1616.353882,1198.928345 
	C1615.270508,1199.338745 1613.055908,1197.031982 1611.477417,1195.825684 
	C1585.953613,1176.319580 1578.433960,1138.487061 1594.522095,1110.499756 
	C1594.999146,1109.669922 1595.807739,1109.030518 1597.003540,1107.698853 
	C1617.254883,1121.105469 1626.954468,1140.254150 1628.622559,1165.843018 
	C1642.060303,1145.576538 1658.623291,1133.210693 1683.088745,1131.013672 
	C1682.848755,1136.496460 1682.651733,1140.998047 1682.365723,1146.331787 
z"/>
<path fill="#FCF7F8" opacity="1.000000" stroke="none" 
	d="
M897.635132,1574.209229 
	C905.912415,1589.963135 910.925171,1606.543335 922.594543,1621.132324 
	C910.790283,1621.132324 900.373840,1621.132324 889.533936,1621.132324 
	C895.566772,1611.287354 887.884766,1604.627808 884.481934,1596.280762 
	C869.335327,1596.280762 854.393311,1596.166016 839.457886,1596.425781 
	C837.584290,1596.458252 835.380798,1598.131958 833.987793,1599.649170 
	C832.462891,1601.309937 831.663879,1603.652710 830.613953,1605.731323 
	C826.695679,1613.488281 826.705688,1613.493286 831.055847,1621.087891 
	C820.788696,1621.087891 810.827393,1621.087891 799.085266,1621.087891 
	C811.422791,1608.114624 815.385864,1592.489014 822.289734,1578.387817 
	C829.307129,1564.055054 835.854309,1549.478882 842.136108,1534.807495 
	C843.847412,1530.810547 843.859436,1526.086182 844.806091,1520.837402 
	C854.848755,1520.837402 865.977905,1520.837402 877.969849,1520.837402 
	C874.699707,1527.049683 877.393616,1532.190918 880.056458,1537.541504 
	C885.983643,1549.451782 891.589478,1561.521973 897.635132,1574.209229 
M872.364868,1568.844116 
	C868.099915,1559.971313 863.834900,1551.098633 858.669800,1540.353394 
	C853.275879,1554.336914 847.262817,1565.913696 843.109863,1578.973633 
	C854.784607,1578.973633 865.171692,1578.973633 876.579529,1578.973633 
	C875.214783,1575.531006 874.160278,1572.870972 872.364868,1568.844116 
z"/>
<path fill="#FCF7F8" opacity="1.000000" stroke="none" 
	d="
M1596.464844,1596.260132 
	C1592.209351,1596.260132 1588.887573,1596.260132 1584.809937,1596.260132 
	C1582.326904,1604.209961 1571.886230,1610.023193 1580.536133,1621.089355 
	C1569.998291,1621.089355 1560.290527,1621.089355 1549.585693,1621.089355 
	C1550.619019,1619.180298 1551.351562,1617.618530 1552.269043,1616.174561 
	C1554.207153,1613.124878 1556.663330,1610.332520 1558.169922,1607.091919 
	C1568.972656,1583.856201 1579.747925,1560.604370 1590.135864,1537.182007 
	C1592.263672,1532.384399 1592.721069,1526.845947 1594.165161,1520.731445 
	C1603.812500,1520.731445 1614.903564,1520.731445 1624.516724,1520.731445 
	C1626.118896,1526.719604 1626.779785,1532.131714 1628.959717,1536.840576 
	C1639.725342,1560.095093 1650.817505,1583.200073 1661.979858,1606.268066 
	C1664.329956,1611.124756 1667.458862,1615.604614 1670.754517,1621.140991 
	C1659.467773,1621.140991 1649.074707,1621.140991 1638.524292,1621.140991 
	C1642.196899,1612.816528 1641.694092,1610.576660 1632.934692,1596.260132 
	C1621.332275,1596.260132 1609.365601,1596.260132 1596.464844,1596.260132 
M1625.224854,1577.706909 
	C1620.295532,1565.562866 1614.318481,1553.964478 1607.643799,1540.689453 
	C1601.813599,1554.642212 1596.878784,1566.452026 1591.592651,1579.102905 
	C1603.456177,1579.102905 1613.979004,1579.102905 1625.224854,1577.706909 
z"/>
<path fill="#FDF9FA" opacity="1.000000" stroke="none" 
	d="
M1173.287598,1881.316650 
	C1181.653931,1877.892456 1189.327637,1874.780396 1197.533813,1871.452271 
	C1199.102905,1877.552002 1195.873047,1882.217407 1194.881470,1887.184692 
	C1193.587402,1893.667969 1189.634155,1900.517944 1190.867310,1906.356323 
	C1192.104248,1912.211670 1198.276367,1917.044067 1202.350586,1922.274292 
	C1205.371704,1926.152588 1208.496826,1929.949707 1212.987305,1935.540649 
	C1205.966797,1935.755981 1200.844116,1935.926636 1195.720581,1936.067871 
	C1176.647339,1936.594116 1176.647095,1936.590454 1166.456787,1953.157471 
	C1163.692383,1957.651733 1160.928833,1962.146484 1157.135620,1968.314575 
	C1153.580322,1958.564575 1150.270020,1950.512085 1147.742188,1942.220947 
	C1145.809937,1935.882812 1142.760376,1932.155273 1135.702148,1930.984131 
	C1127.325317,1929.594360 1119.198120,1926.700562 1109.383057,1924.028564 
	C1116.601074,1918.133423 1122.130981,1912.830444 1128.422241,1908.681763 
	C1135.969360,1903.705200 1138.764038,1897.800537 1137.031738,1888.712891 
	C1135.635742,1881.389526 1136.064697,1873.718506 1135.574707,1864.046021 
	C1144.829468,1870.291992 1152.679077,1875.047119 1159.873169,1880.644897 
	C1164.297729,1884.087402 1168.131104,1884.168579 1173.287598,1881.316650 
z"/>
<path fill="#FDF9FA" opacity="1.000000" stroke="none" 
	d="
M664.458374,647.499878 
	C674.653687,659.823425 684.396973,671.599854 694.836365,684.217651 
	C687.830505,690.193909 681.163696,695.880981 674.111084,701.897156 
	C671.304749,698.936523 668.992554,696.632141 666.830078,694.194885 
	C644.728333,669.285339 622.650513,644.354736 600.568298,619.427917 
	C599.243469,617.932434 597.826233,616.502075 596.643616,614.899963 
	C591.346069,607.723145 592.006470,598.782043 598.168396,593.231140 
	C604.464783,587.559082 614.128906,588.156860 620.597412,594.706909 
	C622.230042,596.360107 623.636414,598.238892 625.123840,600.033020 
	C638.087646,615.670532 651.046204,631.312195 664.458374,647.499878 
z"/>
<path fill="#FDF9FA" opacity="1.000000" stroke="none" 
	d="
M1715.861694,602.639099 
	C1716.423706,608.396484 1714.546753,612.507812 1711.314697,616.150024 
	C1686.561890,644.044189 1661.820068,671.948242 1637.057007,699.833374 
	C1636.628662,700.315918 1635.978760,700.601807 1634.590576,701.560974 
	C1628.087646,696.100647 1621.381226,690.469482 1614.327271,684.546509 
	C1616.409302,681.798279 1617.911011,679.656433 1619.572754,677.646912 
	C1641.218750,651.472290 1662.887329,625.316345 1684.550171,599.155823 
	C1685.187378,598.386475 1685.809082,597.603638 1686.465820,596.851440 
	C1696.992310,584.796204 1709.129761,586.872437 1715.861694,602.639099 
z"/>
<path fill="#FBF6F7" opacity="1.000000" stroke="none" 
	d="
M1001.089844,1549.028320 
	C1006.302612,1541.701172 1011.082458,1534.949585 1015.874084,1528.181274 
	C1014.400513,1525.733765 1013.280151,1523.872681 1012.346741,1522.322266 
	C1013.898621,1519.306274 1039.075806,1519.358521 1047.521118,1521.982422 
	C1030.500122,1537.191895 1019.027039,1556.733032 1004.557007,1573.818359 
	C1001.079895,1577.923950 999.858521,1582.260132 1000.112183,1587.496582 
	C1000.417664,1593.802490 999.853027,1600.158081 1000.294617,1606.447876 
	C1000.618774,1611.065308 1001.956238,1615.611694 1003.021301,1621.115356 
	C994.361328,1622.879761 984.629211,1621.382690 973.933289,1621.836548 
	C981.224976,1608.459595 976.991394,1594.909302 977.800598,1581.759277 
	C977.957458,1579.209351 976.003357,1576.171143 974.284668,1573.922485 
	C963.378662,1559.654053 952.399231,1545.436157 941.125488,1531.458374 
	C938.336731,1528.000732 934.370728,1525.492310 930.953003,1522.553711 
	C936.058167,1519.666992 948.598938,1519.044800 968.300781,1520.850464 
	C962.923096,1528.271606 967.853821,1533.184570 972.069397,1538.462036 
	C978.276733,1546.233032 984.252747,1554.188721 991.032410,1562.980103 
	C994.566223,1558.068848 997.611511,1553.836426 1001.089844,1549.028320 
z"/>
<path fill="#FCF8F9" opacity="1.000000" stroke="none" 
	d="
M1668.916870,1036.675781 
	C1675.339722,1034.001099 1681.128174,1031.713867 1687.359009,1029.251831 
	C1691.552246,1038.093872 1689.457764,1046.013794 1687.449219,1053.464478 
	C1682.777588,1070.792725 1672.108398,1083.569946 1655.593628,1090.935303 
	C1651.439331,1092.788086 1645.392090,1095.616089 1642.602173,1093.964111 
	C1639.245483,1091.976440 1635.482910,1091.567017 1632.270996,1089.526855 
	C1608.691528,1074.549072 1600.101807,1040.799438 1614.504639,1015.329895 
	C1632.328369,1025.391602 1641.553833,1040.783569 1644.744507,1062.501465 
	C1651.356445,1051.519287 1658.281494,1042.736450 1668.916870,1036.675781 
z"/>
<path fill="#FDF9FA" opacity="1.000000" stroke="none" 
	d="
M627.440552,1034.325684 
	C639.925598,1040.194092 648.274536,1049.450928 656.039062,1062.243286 
	C658.528870,1046.718506 663.512878,1034.263916 673.800354,1024.699829 
	C677.593872,1021.172913 681.966553,1018.268982 686.124573,1015.042542 
	C701.058716,1038.360718 693.250183,1073.418945 668.171631,1089.711060 
	C664.853027,1091.867065 660.853516,1092.411133 657.317810,1094.116211 
	C654.444458,1095.501831 649.144165,1092.651001 645.232300,1090.957886 
	C620.709595,1080.344727 607.489014,1052.526367 612.917603,1029.812622 
	C617.551758,1031.225586 622.149658,1032.627441 627.440552,1034.325684 
z"/>
<path fill="#FCF7F8" opacity="1.000000" stroke="none" 
	d="
M675.769165,985.727051 
	C671.424805,989.394287 667.620544,992.611206 663.679443,995.650635 
	C658.100464,999.953430 652.733704,999.840210 646.346924,996.318970 
	C622.103821,982.953003 612.222473,951.174683 623.538757,928.520874 
	C638.338623,934.382507 647.453674,945.574036 653.620117,960.599976 
	C658.463501,954.554260 662.552185,948.767761 667.351562,943.647400 
	C672.373413,938.289856 678.646790,934.550049 686.813354,932.003296 
	C693.193542,952.152527 689.210754,969.500977 675.769165,985.727051 
z"/>
<path fill="#FDF9FA" opacity="1.000000" stroke="none" 
	d="
M1658.137573,942.161499 
	C1663.878052,936.001526 1669.747192,931.270569 1677.065674,928.669067 
	C1688.849731,947.856628 1680.588989,986.403564 1649.203369,998.374939 
	C1647.314819,999.095154 1644.635864,999.173706 1642.807373,998.404175 
	C1616.896362,987.499512 1604.517578,955.595520 1614.786377,932.325378 
	C1629.539551,936.966370 1638.990967,947.609802 1646.329468,960.622742 
	C1650.342285,954.290405 1654.010498,948.502014 1658.137573,942.161499 
z"/>
<path fill="#FBF6F8" opacity="1.000000" stroke="none" 
	d="
M1303.636230,1872.888184 
	C1298.577393,1868.034302 1294.028320,1863.730591 1288.273071,1858.285767 
	C1294.433228,1857.048828 1298.857910,1855.796265 1303.363037,1855.343628 
	C1309.662598,1854.711060 1313.706787,1852.062012 1315.560791,1845.703003 
	C1316.848877,1841.285522 1319.161743,1837.166992 1321.302734,1832.259521 
	C1325.297974,1834.706177 1326.548706,1838.622925 1327.852417,1841.977905 
	C1331.107544,1850.354370 1336.319458,1854.943481 1345.764038,1854.224731 
	C1348.946411,1853.982666 1352.230713,1855.076172 1357.439087,1855.853394 
	C1353.192139,1860.532715 1350.310913,1864.451782 1346.699463,1867.507812 
	C1341.620605,1871.804932 1341.006104,1876.724854 1342.598755,1882.698242 
	C1343.855591,1887.411377 1344.564697,1892.270508 1345.787842,1898.427612 
	C1337.850952,1894.581299 1331.306274,1891.409790 1323.993530,1887.865967 
	C1317.855957,1891.401123 1311.338013,1895.155396 1303.039551,1899.935181 
	C1303.856323,1893.106812 1304.708008,1888.003906 1304.991211,1882.869751 
	C1305.163208,1879.750977 1304.457397,1876.583862 1303.636230,1872.888184 
z"/>
<path fill="#FBF6F8" opacity="1.000000" stroke="none" 
	d="
M1021.039307,1886.940918 
	C1021.544250,1891.062988 1021.870239,1894.344360 1022.407715,1899.754517 
	C1014.594604,1895.301758 1008.178101,1891.645020 1001.583740,1887.886841 
	C994.650330,1891.231323 987.868652,1894.502686 979.728699,1898.429199 
	C981.181946,1891.196045 982.215393,1885.365723 983.558228,1879.607666 
	C984.470703,1875.695190 983.831726,1872.616699 980.821655,1869.701782 
	C976.800781,1865.807861 973.191833,1861.488770 968.011536,1855.828735 
	C974.778625,1854.975464 979.829102,1854.073120 984.915100,1853.774414 
	C989.711243,1853.492676 992.957336,1851.808105 994.960571,1847.159180 
	C997.172485,1842.026001 1000.085144,1837.194702 1003.466675,1830.758667 
	C1007.151062,1838.975342 1010.240051,1845.864136 1013.539307,1853.221924 
	C1020.845764,1854.802979 1028.230225,1856.401001 1038.139404,1858.545288 
	C1033.489014,1862.501953 1030.455078,1865.545776 1026.976440,1867.944214 
	C1020.282776,1872.559326 1018.638184,1878.613647 1021.039307,1886.940918 
z"/>
<path fill="#F4E5E9" opacity="1.000000" stroke="none" 
	d="
M1492.458740,1712.663086 
	C1492.168335,1708.211304 1491.878540,1704.679077 1491.547119,1700.640625 
	C1504.167358,1700.640625 1516.813843,1699.882568 1529.324341,1700.861328 
	C1540.990601,1701.774170 1546.011108,1710.688599 1541.065552,1719.502808 
	C1539.942139,1721.505127 1538.280151,1723.205200 1536.854736,1725.058960 
	C1538.352783,1726.543457 1539.965698,1727.798584 1541.151855,1729.375000 
	C1547.310913,1737.560303 1544.452759,1746.839478 1534.757812,1749.984985 
	C1532.249878,1750.798584 1529.545654,1751.371582 1526.923218,1751.405640 
	C1515.313721,1751.556641 1503.701172,1751.470947 1492.459229,1751.470947 
	C1492.459229,1738.503052 1492.459229,1726.042725 1492.458740,1712.663086 
M1511.235962,1742.481812 
	C1516.193848,1742.431030 1521.153076,1742.430908 1526.109375,1742.312744 
	C1529.839600,1742.223755 1532.745483,1740.599976 1532.943115,1736.626831 
	C1533.162842,1732.211548 1530.293335,1729.923096 1526.127686,1729.802246 
	C1518.986938,1729.594971 1511.835815,1729.744873 1504.025757,1729.744873 
	C1504.025757,1733.318359 1504.085083,1735.900635 1504.011841,1738.479248 
	C1503.901123,1742.383179 1506.562378,1742.474609 1511.235962,1742.481812 
M1514.954224,1709.367432 
	C1511.456543,1709.507202 1507.958984,1709.646973 1504.500977,1709.785278 
	C1504.500977,1713.739746 1504.500977,1716.575562 1504.500977,1720.047607 
	C1512.175415,1720.047607 1519.404541,1720.384766 1526.561401,1719.814575 
	C1528.390503,1719.668823 1531.290771,1716.678955 1531.328125,1714.944580 
	C1531.364990,1713.235474 1528.676514,1710.539551 1526.679321,1709.930298 
	C1523.622070,1708.997559 1520.131836,1709.483643 1514.954224,1709.367432 
z"/>
<path fill="#F6E9EC" opacity="1.000000" stroke="none" 
	d="
M815.420776,1718.423584 
	C815.424072,1721.768799 815.424072,1724.364624 815.424072,1727.709106 
	C805.626770,1723.142944 796.256836,1725.009399 786.740479,1725.204834 
	C786.740479,1734.032104 786.740479,1742.403687 786.740479,1751.177734 
	C782.184937,1751.177734 776.957825,1751.177734 771.556152,1751.177734 
	C771.556152,1731.123535 771.556152,1711.164429 771.556152,1690.077026 
	C790.068176,1690.077026 809.256958,1690.077026 829.078735,1690.077026 
	C829.078735,1692.988770 829.078735,1697.064941 829.078735,1701.175415 
	C814.916016,1701.175415 800.850769,1701.175415 786.343262,1701.175415 
	C786.343262,1705.326416 786.343262,1709.221313 786.343262,1713.887207 
	C795.784363,1713.887207 805.137085,1713.887207 814.938232,1713.887207 
	C815.098816,1715.156128 815.258118,1716.415161 815.420776,1718.423584 
z"/>
<path fill="#F8EFF2" opacity="1.000000" stroke="none" 
	d="
M1316.773804,1737.909180 
	C1320.048828,1735.646484 1322.584595,1733.644043 1325.769165,1731.129150 
	C1327.681274,1734.068481 1329.936279,1737.534912 1332.493652,1741.466064 
	C1318.414551,1749.646729 1304.398804,1754.251343 1288.413330,1750.147461 
	C1273.876343,1746.415283 1264.630005,1736.088867 1264.124268,1722.228516 
	C1263.614990,1708.271484 1271.911011,1696.774414 1285.923584,1692.259766 
	C1297.443604,1688.548340 1308.933594,1689.533447 1320.339844,1692.908081 
	C1323.505981,1693.844971 1326.625000,1694.940796 1331.027954,1696.374634 
	C1328.574341,1700.328857 1326.249268,1704.075806 1324.178711,1707.412476 
	C1318.045044,1704.988281 1312.562500,1701.664185 1306.728271,1700.845459 
	C1301.054932,1700.049438 1294.709595,1700.875244 1289.219482,1702.686768 
	C1281.070190,1705.375854 1276.739868,1713.171387 1277.089355,1721.473267 
	C1277.433350,1729.644287 1282.588257,1736.614868 1290.683716,1739.468018 
	C1299.273315,1742.495239 1307.730347,1741.466187 1316.773804,1737.909180 
z"/>
<path fill="#FAF3F5" opacity="1.000000" stroke="none" 
	d="
M1099.767700,1717.651978 
	C1098.230713,1718.658081 1096.776611,1720.201294 1096.740967,1721.776733 
	C1096.525146,1731.312500 1096.633423,1740.855713 1096.633423,1750.950195 
	C1093.745605,1750.950195 1090.323853,1750.950195 1086.633301,1750.950195 
	C1086.633301,1734.127441 1086.633301,1717.707031 1086.633301,1700.829956 
	C1091.420898,1700.829956 1095.954834,1700.829956 1098.901123,1700.829956 
	C1109.406250,1712.118408 1119.148438,1722.587036 1128.890747,1733.055664 
	C1129.460083,1732.766724 1130.029541,1732.477783 1130.598877,1732.188965 
	C1130.598877,1721.885742 1130.598877,1711.582520 1130.598877,1700.832275 
	C1134.199463,1700.832275 1137.403076,1700.832275 1141.138184,1700.832275 
	C1141.138184,1717.163452 1141.138184,1733.587402 1141.138184,1750.753906 
	C1139.829224,1750.952271 1138.003906,1751.346191 1136.160034,1751.476562 
	C1134.184692,1751.616333 1132.191772,1751.508057 1131.493408,1751.508057 
	C1120.679077,1739.885132 1110.592529,1729.044556 1099.767700,1717.651978 
z"/>
<path fill="#F7ECEF" opacity="1.000000" stroke="none" 
	d="
M927.342957,1724.615967 
	C924.363586,1721.595215 921.875366,1719.093628 917.730042,1714.926270 
	C917.730042,1722.448364 917.730103,1727.919189 917.730103,1733.390015 
	C917.730103,1738.990723 917.730042,1744.591309 917.730042,1750.879517 
	C914.854004,1750.879517 911.096436,1750.879517 907.272827,1750.879517 
	C907.272827,1734.280396 907.272827,1717.847778 907.272827,1700.876709 
	C911.317078,1700.876709 915.865051,1700.876709 919.359924,1700.876709 
	C929.792847,1711.934814 939.883545,1722.630371 951.293945,1734.724609 
	C951.293945,1722.298950 951.293945,1711.925415 951.293945,1700.940918 
	C954.585938,1700.940918 958.366211,1700.940918 962.284424,1700.940918 
	C962.284424,1717.625854 962.284424,1734.061646 962.284424,1751.027832 
	C958.459900,1751.027832 954.580261,1751.027832 952.019104,1751.027832 
	C943.614075,1742.029297 935.724060,1733.582153 927.342957,1724.615967 
z"/>
<path fill="#F7ECEF" opacity="1.000000" stroke="none" 
	d="
M1181.311768,1751.217773 
	C1169.747803,1749.111938 1160.829102,1744.864136 1157.403687,1733.359253 
	C1153.680054,1720.853516 1158.843994,1708.954468 1170.729248,1703.558350 
	C1179.798462,1699.440674 1189.286743,1698.644653 1198.937744,1701.287842 
	C1203.319824,1702.488037 1207.618408,1703.992432 1212.643799,1705.575928 
	C1210.896240,1709.151489 1209.339111,1712.337402 1207.544922,1716.008179 
	C1199.144653,1708.907715 1190.015991,1706.704834 1179.829102,1709.888306 
	C1171.812134,1712.393677 1167.787964,1717.828857 1167.798950,1726.091431 
	C1167.809814,1734.261108 1171.928711,1739.528320 1180.038818,1742.133301 
	C1187.011108,1744.372681 1193.879395,1743.450317 1200.665405,1741.599121 
	C1204.134277,1740.652832 1204.049927,1740.343750 1203.628540,1733.519287 
	C1198.860229,1733.519287 1194.067017,1733.519287 1188.191284,1733.519287 
	C1188.073853,1731.164795 1187.921631,1728.114746 1187.786743,1725.410522 
	C1197.250122,1725.410522 1205.965576,1725.410522 1214.616699,1725.410522 
	C1214.616699,1732.599487 1214.616699,1738.749268 1214.616699,1745.273193 
	C1204.592529,1751.327148 1193.607910,1752.552368 1181.311768,1751.217773 
z"/>
<path fill="#F4E5E9" opacity="1.000000" stroke="none" 
	d="
M877.670288,1751.600952 
	C865.755432,1751.600586 854.791504,1751.600586 843.315308,1751.600586 
	C843.315308,1734.647217 843.315308,1718.205566 843.315308,1700.600342 
	C857.614075,1700.600342 872.366028,1700.600342 887.720337,1700.600342 
	C887.720337,1702.913574 887.720337,1706.377441 887.720337,1709.896729 
	C876.856140,1709.896729 866.378235,1709.896729 855.117126,1709.896729 
	C854.882385,1712.984497 854.667603,1715.809814 854.386963,1719.500732 
	C862.253601,1719.500732 869.652954,1719.500732 877.639282,1719.500732 
	C877.639282,1723.213135 877.639282,1726.320435 877.639282,1729.872559 
	C870.184998,1729.872559 863.009827,1729.872559 855.053284,1729.872559 
	C854.850891,1733.736572 854.667908,1737.231445 854.438782,1741.606689 
	C865.991455,1741.606689 877.073364,1741.606689 889.108032,1741.606689 
	C889.311157,1744.522461 889.530029,1747.663208 889.804382,1751.601318 
	C885.743164,1751.601318 882.182190,1751.601318 877.670288,1751.600952 
z"/>
<path fill="#F6E9EC" opacity="1.000000" stroke="none" 
	d="
M1443.998047,1742.692627 
	C1458.024170,1740.972656 1460.077393,1738.691162 1460.157715,1725.639160 
	C1460.184326,1721.308594 1460.283203,1716.973511 1460.127686,1712.648438 
	C1459.989258,1708.800415 1459.544800,1704.963379 1459.203003,1700.718384 
	C1463.346558,1700.718384 1467.535767,1700.718384 1471.150513,1700.718384 
	C1471.150513,1710.571411 1471.277832,1720.097656 1471.119019,1729.619141 
	C1470.907593,1742.288208 1466.422241,1747.575806 1454.174805,1750.597656 
	C1446.165161,1752.573853 1438.275513,1752.156860 1430.522461,1749.741455 
	C1421.590088,1746.958618 1417.481323,1741.556885 1417.084351,1732.117676 
	C1416.804565,1725.466431 1417.126343,1718.791382 1416.932129,1712.134155 
	C1416.828125,1708.570068 1416.200195,1705.021484 1415.749268,1700.924561 
	C1419.533447,1700.924561 1424.015869,1700.924561 1427.898560,1700.924561 
	C1427.898560,1709.225220 1427.869263,1717.396606 1427.905151,1725.567749 
	C1427.962646,1738.649780 1430.012329,1740.934082 1443.998047,1742.692627 
z"/>
<path fill="#F7ECEF" opacity="1.000000" stroke="none" 
	d="
M991.263611,1715.384521 
	C986.389893,1727.089722 988.354858,1735.562500 996.449097,1740.550171 
	C1005.248169,1745.972168 1017.743469,1743.284058 1025.502808,1733.507202 
	C1028.053345,1737.046387 1030.409668,1740.316162 1033.426147,1744.502197 
	C1026.042358,1746.927246 1019.971436,1749.845215 1013.615234,1750.742920 
	C1007.543335,1751.600342 1000.943359,1751.295044 994.986206,1749.830200 
	C983.971252,1747.121826 977.041443,1737.380493 976.821228,1726.326416 
	C976.609497,1715.699097 982.873291,1706.396606 993.205627,1702.395630 
	C1000.863525,1699.430176 1008.748352,1698.888306 1016.689087,1701.239868 
	C1021.077026,1702.539307 1025.399292,1704.060547 1030.685059,1705.786621 
	C1028.482300,1709.176514 1026.608032,1712.060791 1024.724243,1714.959839 
	C1011.912415,1706.304810 1002.244690,1706.363647 991.263611,1715.384521 
z"/>
<path fill="#F2E0E5" opacity="1.000000" stroke="none" 
	d="
M1352.611694,1710.813232 
	C1352.217163,1707.042603 1351.824585,1704.174927 1351.361206,1700.790161 
	C1355.782715,1700.790161 1360.293945,1700.790161 1364.767700,1700.790161 
	C1364.767700,1714.299927 1364.767700,1727.680176 1364.767700,1741.742554 
	C1376.293335,1741.742554 1387.718140,1741.742554 1399.777100,1741.742554 
	C1399.777100,1744.739746 1399.777100,1748.119629 1399.777100,1751.437134 
	C1383.590210,1751.437134 1367.735962,1751.437134 1352.613647,1751.437134 
	C1352.613647,1737.897949 1352.613647,1724.807129 1352.611694,1710.813232 
z"/>
<path fill="#F2E0E5" opacity="1.000000" stroke="none" 
	d="
M1050.536865,1735.643677 
	C1050.492310,1723.560791 1050.447510,1712.429688 1050.400513,1700.791626 
	C1053.759888,1700.791626 1058.581665,1700.791626 1062.822876,1700.791626 
	C1061.528076,1717.422363 1062.171021,1733.949463 1062.273315,1751.051270 
	C1058.993408,1751.051270 1054.244385,1751.051270 1049.664917,1751.051270 
	C1049.961914,1746.125732 1050.249268,1741.360596 1050.536865,1735.643677 
z"/>
<path fill="#99082C" opacity="1.000000" stroke="none" 
	d="
M1063.537598,673.575195 
	C1110.318359,670.368530 1156.200439,667.362000 1202.175537,670.067505 
	C1226.247070,671.484070 1249.568359,676.661865 1271.418945,687.430847 
	C1305.269775,704.114136 1323.661133,731.462280 1328.324951,768.653320 
	C1331.759033,796.039795 1328.988281,822.601257 1317.430542,847.717529 
	C1298.440674,888.984863 1264.638794,911.804749 1221.463867,921.626282 
	C1209.236572,924.407837 1196.405273,925.741577 1183.858276,925.696960 
	C1135.238159,925.524231 1086.620850,924.543945 1038.003296,923.804138 
	C1034.436279,923.749878 1030.876587,923.216064 1026.904053,922.869507 
	C1026.904053,840.887878 1026.904053,759.756836 1026.904053,677.281677 
	C1038.905640,676.058350 1050.759277,674.850098 1063.537598,673.575195 
z"/>
<path fill="#99092D" opacity="1.000000" stroke="none" 
	d="
M1105.084473,1245.080566 
	C1088.264038,1240.214478 1072.485107,1234.795044 1058.278809,1225.917603 
	C1051.002808,1221.371094 1044.081543,1215.975220 1037.901489,1210.026733 
	C1029.913940,1202.338379 1026.367310,1192.409302 1026.377808,1181.158447 
	C1026.444458,1110.189575 1026.406372,1039.220703 1026.428345,968.251892 
	C1026.428955,966.287109 1026.717407,964.322388 1026.927612,961.644714 
	C1030.338623,961.293579 1033.596313,960.716553 1036.863281,960.657959 
	C1090.823975,959.691223 1144.784668,958.201050 1198.747559,958.106079 
	C1228.485596,958.053711 1257.706299,963.196167 1285.900635,973.301514 
	C1338.234009,992.058838 1366.598022,1029.771729 1373.721680,1084.207642 
	C1376.327148,1104.117676 1376.960571,1124.057007 1371.982910,1143.788696 
	C1367.721436,1160.680786 1360.781616,1176.289673 1349.410645,1191.791748 
	C1315.124023,1124.301514 1281.462891,1058.042603 1247.214722,990.628235 
	C1245.193359,994.033447 1243.623169,996.365234 1242.359497,998.852661 
	C1202.406982,1077.488159 1162.458862,1156.125977 1122.633667,1234.826050 
	C1120.668579,1238.709595 1119.816284,1243.156128 1118.135864,1248.286743 
	C1114.685425,1247.467407 1110.269165,1246.418701 1105.084473,1245.080566 
z"/>
<path fill="#9A0C2F" opacity="1.000000" stroke="none" 
	d="
M747.389954,1595.781738 
	C742.339172,1597.520264 737.957703,1599.803711 733.518372,1599.922607 
	C716.943298,1600.365723 700.349243,1600.099609 683.054688,1600.099609 
	C683.054688,1589.714966 683.054688,1579.595947 683.054688,1568.784546 
	C684.607971,1568.511230 686.448425,1567.915894 688.291931,1567.906494 
	C701.908813,1567.836548 715.527466,1567.791626 729.142944,1567.954956 
	C732.757080,1567.998169 736.470520,1568.387573 739.952515,1569.315552 
	C754.322571,1573.145630 757.564636,1583.821045 747.389954,1595.781738 
z"/>
<path fill="#9C1032" opacity="1.000000" stroke="none" 
	d="
M736.403564,1547.261719 
	C718.275879,1547.458862 701.000000,1547.458862 683.024414,1547.458862 
	C683.024414,1538.851807 683.024414,1530.354004 683.024414,1521.218262 
	C684.557739,1520.920898 686.407410,1520.261719 688.260864,1520.250732 
	C701.587585,1520.171753 714.917114,1520.100342 728.241211,1520.311523 
	C732.196655,1520.374146 736.215088,1521.032104 740.068420,1521.974365 
	C747.322998,1523.747803 750.018250,1527.072388 750.221313,1533.598145 
	C750.430115,1540.305786 748.170349,1543.432129 741.118652,1546.047119 
	C739.875977,1546.507812 738.545410,1546.731567 736.403564,1547.261719 
z"/>
<path fill="#98082C" opacity="1.000000" stroke="none" 
	d="
M727.118286,1306.732178 
	C726.662048,1306.213257 726.586365,1305.400024 726.510681,1304.586670 
	C726.970032,1304.628784 727.429382,1304.671021 728.046570,1305.248291 
	C728.204407,1305.783325 727.498779,1306.437744 727.118286,1306.732178 
z"/>
<path fill="#98082C" opacity="1.000000" stroke="none" 
	d="
M770.065552,1373.969727 
	C770.270203,1374.459961 770.541077,1374.913086 770.811890,1375.366333 
	C770.356140,1375.056030 769.900391,1374.745728 769.858948,1374.157227 
	C770.273315,1373.879028 770.131653,1373.932739 770.065552,1373.969727 
z"/>
<path fill="#98082C" opacity="1.000000" stroke="none" 
	d="
M1531.841797,1373.875000 
	C1531.647827,1374.596313 1531.100220,1374.986328 1530.552734,1375.376465 
	C1530.432983,1374.872803 1530.313110,1374.369141 1530.462158,1373.402588 
	C1530.731079,1372.939819 1531.488281,1373.543945 1531.841797,1373.875000 
z"/>
<path fill="#9A0C2F" opacity="1.000000" stroke="none" 
	d="
M1185.734985,1551.869507 
	C1188.914062,1545.579224 1191.783691,1539.969116 1195.026978,1533.628540 
	C1200.601196,1539.296997 1202.050659,1546.514404 1205.181396,1552.741943 
	C1208.437134,1559.218262 1211.151489,1565.966675 1214.772461,1574.100464 
	C1201.335938,1574.900146 1188.979370,1574.344482 1174.700317,1574.497559 
	C1178.647095,1566.420776 1182.036255,1559.485229 1185.734985,1551.869507 
z"/>
<path fill="#9A0C2F" opacity="1.000000" stroke="none" 
	d="
M1377.022461,1558.821289 
	C1372.776245,1560.824219 1369.149292,1563.351685 1365.440063,1563.478882 
	C1351.296265,1563.963623 1337.125977,1563.674683 1322.447754,1563.674683 
	C1322.447754,1554.982788 1322.447754,1546.873901 1322.447754,1538.187622 
	C1337.818970,1538.187622 1352.998657,1537.336914 1368.031372,1538.457397 
	C1379.996704,1539.349243 1383.096558,1547.093750 1377.022461,1558.821289 
z"/>
<path fill="#9F1739" opacity="1.000000" stroke="none" 
	d="
M872.735352,1569.527588 
	C874.160278,1572.870972 875.214783,1575.531006 876.579529,1578.973633 
	C865.171692,1578.973633 854.784607,1578.973633 843.109863,1578.973633 
	C847.262817,1565.913696 853.275879,1554.336914 858.669800,1540.353394 
	C863.834900,1551.098633 868.099915,1559.971313 872.735352,1569.527588 
z"/>
<path fill="#9F1739" opacity="1.000000" stroke="none" 
	d="
M1624.863281,1578.404907 
	C1613.979004,1579.102905 1603.456177,1579.102905 1591.592651,1579.102905 
	C1596.878784,1566.452026 1601.813599,1554.642212 1607.643799,1540.689453 
	C1614.318481,1553.964478 1620.295532,1565.562866 1624.863281,1578.404907 
z"/>
<path fill="#9A0C2F" opacity="1.000000" stroke="none" 
	d="
M1510.285400,1742.476562 
	C1506.562378,1742.474609 1503.901123,1742.383179 1504.011841,1738.479248 
	C1504.085083,1735.900635 1504.025757,1733.318359 1504.025757,1729.744873 
	C1511.835815,1729.744873 1518.986938,1729.594971 1526.127686,1729.802246 
	C1530.293335,1729.923096 1533.162842,1732.211548 1532.943115,1736.626831 
	C1532.745483,1740.599976 1529.839600,1742.223755 1526.109375,1742.312744 
	C1521.153076,1742.430908 1516.193848,1742.431030 1510.285400,1742.476562 
z"/>
<path fill="#9A0C2F" opacity="1.000000" stroke="none" 
	d="
M1515.889893,1709.367432 
	C1520.131836,1709.483643 1523.622070,1708.997559 1526.679321,1709.930298 
	C1528.676514,1710.539551 1531.364990,1713.235474 1531.328125,1714.944580 
	C1531.290771,1716.678955 1528.390503,1719.668823 1526.561401,1719.814575 
	C1519.404541,1720.384766 1512.175415,1720.047607 1504.500977,1720.047607 
	C1504.500977,1716.575562 1504.500977,1713.739746 1504.500977,1709.785278 
	C1507.958984,1709.646973 1511.456543,1709.507202 1515.889893,1709.367432 
z"/>
</svg>